<?xml version="1.0" standalone="no"?>
<!DOCTYPE svg PUBLIC "-//W3C//DTD SVG 1.1//EN" "http://www.w3.org/Graphics/SVG/1.1/DTD/svg11.dtd" >
<svg xmlns="http://www.w3.org/2000/svg" xmlns:xlink="http://www.w3.org/1999/xlink" version="1.1">
<metadata>
Created by FontForge 20150318 at Fri Jul 24 16:06:47 2015
 By uniteet7
2009 Mike Abbink published by FSI FontShop International GmbH
</metadata>
<defs>
<font id="MiloSerifOT_gdi" horiz-adv-x="537" >
  <font-face 
    font-family="MiloSerifOT_gdi"
    font-weight="400"
    font-stretch="normal"
    units-per-em="1000"
    panose-1="2 1 5 4 4 1 1 2 1 2"
    ascent="800"
    descent="-200"
    x-height="488"
    cap-height="624"
    bbox="-179 -250 1170 829"
    underline-thickness="60"
    underline-position="-64"
    unicode-range="U+0020-25CA"
  />
<missing-glyph horiz-adv-x="1000" 
 />
    <glyph glyph-name=".notdef" horiz-adv-x="1000" 
 />
    <glyph glyph-name=".null" horiz-adv-x="0" 
 />
    <glyph glyph-name=".null" horiz-adv-x="0" 
 />
    <glyph glyph-name="nonmarkingreturn" horiz-adv-x="333" 
 />
    <glyph glyph-name="space" unicode=" " horiz-adv-x="206" 
 />
    <glyph glyph-name="exclam" unicode="!" horiz-adv-x="263" 
d="M113 172l-29 452h94l-26 -452h-39zM132 -14q-23 0 -39.5 16.5t-16.5 39.5t16.5 39t39.5 16t39 -16t16 -39t-16 -39.5t-39 -16.5z" />
    <glyph glyph-name="quotedbl" unicode="&#x22;" horiz-adv-x="318" 
d="M209 488l-16 208h75l-18 -208h-41zM68 488l-18 208h75l-16 -208h-41z" />
    <glyph glyph-name="numbersign" unicode="#" horiz-adv-x="499" 
d="M201 319l-18 -125h116l18 125h-116zM56 319l7 48h99l20 134h47l-20 -134h116l20 134h47l-20 -134h97l-7 -48h-98l-18 -125h97l-7 -47h-97l-22 -147h-47l22 147h-116l-22 -147h-48l22 147h-98l7 47h98l19 125h-98z" />
    <glyph glyph-name="dollar" unicode="$" horiz-adv-x="540" 
d="M400 152q0 65 -99 108v-228q49 9 74 41.5t25 78.5zM148 485q0 -43 28.5 -71.5t83.5 -50.5v227q-51 -5 -81.5 -34.5t-30.5 -70.5zM260 -107v93q-93 2 -186 26q1 24 1 59q0 18 -4 82h39q11 -120 150 -123v246q-43 17 -70 31t-55 36t-41.5 53t-13.5 72q0 61 52 110t128 56
v86h41v-85q88 -4 156 -27q-4 -52 -4 -79q0 -43 1 -56h-38q-9 108 -115 118v-244q83 -34 125.5 -72t42.5 -106q0 -62 -46 -115t-122 -65v-96h-41z" />
    <glyph glyph-name="percent" unicode="%" horiz-adv-x="846" 
d="M230 -39l-42 21l414 663l42 -23zM631 28q46 0 71.5 36.5t25.5 99.5q0 62 -26.5 98t-70.5 36q-46 0 -71 -36t-25 -99q0 -62 26 -98.5t70 -36.5zM631 -11q-68 0 -113 48.5t-45 123.5t44 125t114 50q71 0 116 -48t45 -121q0 -76 -44.5 -127t-116.5 -51zM212 328
q46 0 71.5 36.5t25.5 99.5q0 62 -26.5 98t-70.5 36q-45 0 -70.5 -36t-25.5 -99q0 -62 26.5 -98.5t69.5 -36.5zM212 289q-68 0 -113 48.5t-45 123.5t44 125t114 50q71 0 116 -48t45 -121q0 -76 -44.5 -127t-116.5 -51z" />
    <glyph glyph-name="ampersand" unicode="&#x26;" horiz-adv-x="716" 
d="M267 370q101 54 101 137q0 33 -23.5 60t-62.5 27t-65 -25t-26 -65q0 -33 18.5 -63.5t57.5 -70.5zM288 38q86 0 146 58q-180 177 -207 207q-82 -44 -82 -133q0 -54 39.5 -93t103.5 -39zM268 -14q-88 0 -146 48.5t-58 119.5q0 109 133 180q-31 34 -45 52.5t-27 47t-13 57.5
q0 64 51 104.5t127 40.5q66 0 108 -34.5t42 -87.5q0 -94 -143 -175q64 -70 185 -188q65 84 65 148q0 25 -36 30l-34 5v30q1 0 44.5 -2.5t64.5 -2.5q20 0 49.5 2.5t36.5 2.5v-30l-31 -4q-33 -4 -45 -40q-33 -98 -84 -165q53 -51 85 -74t70 -26v-27q-22 -9 -46 -9
q-46 0 -82.5 19t-75.5 60q-30 -37 -81 -59.5t-114 -22.5z" />
    <glyph glyph-name="quotesingle" unicode="'" horiz-adv-x="175" 
d="M68 488l-18 208h75l-16 -208h-41z" />
    <glyph glyph-name="parenleft" unicode="(" horiz-adv-x="311" 
d="M282 -178q-101 84 -152.5 196t-51.5 236t51.5 236t152.5 196l25 -27q-88 -101 -122.5 -197.5t-34.5 -207.5t34.5 -207.5t122.5 -197.5z" />
    <glyph glyph-name="parenright" unicode=")" horiz-adv-x="311" 
d="M29 -178l-25 27q88 101 122.5 197.5t34.5 207.5t-34.5 207.5t-122.5 197.5l25 27q101 -84 152.5 -196t51.5 -236t-51.5 -236t-152.5 -196z" />
    <glyph glyph-name="asterisk" unicode="*" horiz-adv-x="421" 
d="M140 371l-56 42l98 105l-142 29l22 66l131 -60l-17 143h70l-17 -144l132 61l20 -67l-142 -28l99 -106l-57 -40l-70 126z" />
    <glyph glyph-name="plus" unicode="+" 
d="M243 0v228h-209v49h209v211h52v-211h208v-49h-208v-228h-52z" />
    <glyph glyph-name="comma" unicode="," horiz-adv-x="263" 
d="M84 -143l-24 18q43 46 43 115q0 44 -25 81l77 30q23 -35 23 -81q0 -49 -29 -94t-65 -69z" />
    <glyph glyph-name="hyphen" unicode="-" horiz-adv-x="353" 
d="M46 227v67h261v-67h-261z" />
    <glyph glyph-name="period" unicode="." horiz-adv-x="263" 
d="M132 -14q-23 0 -39.5 16.5t-16.5 39.5t16.5 39t39.5 16t39 -16t16 -39t-16 -39.5t-39 -16.5z" />
    <glyph glyph-name="slash" unicode="/" horiz-adv-x="346" 
d="M73 -111l-47 15l287 804l45 -14z" />
    <glyph glyph-name="zero" unicode="0" horiz-adv-x="574" 
d="M287 33q77 0 119.5 57t42.5 153q0 94 -44 152t-118 58q-76 0 -118.5 -57.5t-42.5 -152.5q0 -94 43.5 -152t117.5 -58zM287 -14q-106 0 -175.5 71t-69.5 181q0 113 68 187.5t177 74.5q108 0 176.5 -71t68.5 -180q0 -113 -68 -188t-177 -75z" />
    <glyph glyph-name="one" unicode="1" horiz-adv-x="398" 
d="M67 0v28l62 5q19 2 26 16.5t7 63.5v262q0 49 -7 63.5t-26 16.5l-62 5v28q69 -3 131 -3q58 0 127 3v-28l-56 -5q-18 -2 -25.5 -16.5t-7.5 -63.5v-262q0 -49 7.5 -63.5t25.5 -16.5l56 -5v-28q-87 3 -127 3q-50 0 -131 -3z" />
    <glyph glyph-name="two" unicode="2" horiz-adv-x="488" 
d="M38 0v33q9 7 47.5 38t59 48t54.5 49.5t52.5 57.5t33 57t14.5 61q0 48 -31.5 74.5t-84.5 26.5q-57 0 -117 -38l-3 31q53 62 151 62q77 0 122 -37.5t45 -103.5q0 -140 -243 -297l208 1q28 0 42.5 13t24.5 44h31q-20 -69 -28 -120h-378z" />
    <glyph glyph-name="three" unicode="3" horiz-adv-x="425" 
d="M120 -146q-45 0 -81 11l7 39q34 -9 67 -9q79 0 126 37t47 109q0 58 -52.5 91t-141.5 33l8 39q69 2 116.5 46.5t47.5 102.5q0 95 -103 95q-48 0 -107 -38l-4 33q55 57 134 57q80 0 120.5 -37t40.5 -98q0 -56 -38 -100t-87 -57q61 -8 104 -52.5t43 -101.5q0 -87 -71 -143.5
t-176 -56.5z" />
    <glyph glyph-name="four" unicode="4" horiz-adv-x="551" 
d="M96 57h222v327zM318 -136v136h-296v30l318 464h48v-437h125l-7 -57h-118v-136h-70z" />
    <glyph glyph-name="five" unicode="5" horiz-adv-x="452" 
d="M147 -146q-54 0 -94 11l7 39q40 -10 80 -10q73 0 121 43.5t48 111.5q0 65 -45 104.5t-122 39.5q-41 0 -77 -7l25 302h201q26 0 37 7t17 27h35l-25 -100h-222l-13 -166q24 3 44 3q100 0 163 -53.5t63 -142.5q0 -91 -68.5 -150t-174.5 -59z" />
    <glyph glyph-name="six" unicode="6" horiz-adv-x="508" 
d="M277 31q45 0 78 40.5t33 102.5q0 70 -33 113t-91 43q-67 0 -119 -50q-1 -18 -1 -32q0 -55 12.5 -102t44 -81t76.5 -34zM265 -14q-94 0 -149 77.5t-55 189.5q0 167 84.5 275t216.5 108q32 0 74 -7l-6 -42q-32 8 -60 8q-84 0 -148 -73.5t-76 -199.5q23 27 60.5 45t72.5 18
q80 0 134 -49t54 -139q0 -87 -55.5 -149t-146.5 -62z" />
    <glyph glyph-name="seven" unicode="7" horiz-adv-x="448" 
d="M173 -148l-76 16q84 283 249 558h-220q-28 0 -41 -16t-19 -49h-38l26 127h356v-36q-92 -165 -140.5 -291t-96.5 -309z" />
    <glyph glyph-name="eight" unicode="8" horiz-adv-x="481" 
d="M252 363q40 19 68 54t28 75q0 46 -28 74.5t-78 28.5q-44 0 -74 -28t-30 -73q0 -71 114 -131zM242 28q52 0 85.5 36.5t33.5 84.5q0 84 -142 148q-102 -61 -102 -147q0 -54 36.5 -88t88.5 -34zM233 -14q-89 0 -138 44.5t-49 108.5q0 106 135 179q-57 33 -85.5 70t-28.5 92
q0 63 53.5 109.5t130.5 46.5q76 0 120 -37t44 -98q0 -97 -118 -160q71 -37 105 -78.5t34 -99.5q0 -76 -57.5 -126.5t-145.5 -50.5z" />
    <glyph glyph-name="nine" unicode="9" horiz-adv-x="508" 
d="M244 156q67 0 119 50q1 18 1 32q0 55 -12.5 102t-44 81t-76.5 34t-78 -40.5t-33 -102.5q0 -70 33 -113t91 -43zM146 -144q-32 0 -74 7l6 42q37 -8 61 -8q84 0 147.5 71t75.5 196q-23 -27 -60.5 -45t-72.5 -18q-80 0 -134 49t-54 139q0 87 55.5 149t146.5 62
q94 0 149 -77.5t55 -189.5q0 -166 -84.5 -271.5t-216.5 -105.5z" />
    <glyph glyph-name="colon" unicode=":" horiz-adv-x="263" 
d="M132 389q-23 0 -39.5 16.5t-16.5 39.5t16.5 39t39.5 16t39 -16t16 -39t-16 -39.5t-39 -16.5zM132 -14q-23 0 -39.5 16.5t-16.5 39.5t16.5 39t39.5 16t39 -16t16 -39t-16 -39.5t-39 -16.5z" />
    <glyph glyph-name="semicolon" unicode=";" horiz-adv-x="263" 
d="M84 -143l-24 18q43 46 43 115q0 44 -25 81l77 30q23 -35 23 -81q0 -49 -29 -94t-65 -69zM132 389q-23 0 -39.5 16.5t-16.5 39.5t16.5 39t39.5 16t39 -16t16 -39t-16 -39.5t-39 -16.5z" />
    <glyph glyph-name="less" unicode="&#x3c;" 
d="M393 -14l-283 257l283 257l34 -34l-247 -223l247 -223z" />
    <glyph glyph-name="equal" unicode="=" 
d="M44 300v49h449v-49h-449zM44 157v49h449v-49h-449z" />
    <glyph glyph-name="greater" unicode="&#x3e;" 
d="M144 -14l-34 34l247 223l-247 223l34 34l283 -257z" />
    <glyph glyph-name="question" unicode="?" horiz-adv-x="366" 
d="M136 -14q-23 0 -39.5 16.5t-16.5 39.5t16.5 39t39.5 16t39 -16t16 -39t-16 -39.5t-39 -16.5zM109 177q-7 31 -7 50q0 47 23.5 83.5t51 57t51 51.5t23.5 68q0 45 -28.5 71t-83.5 26q-57 0 -102 -30l-11 31q58 51 137 51q80 0 123.5 -36.5t43.5 -103.5q0 -36 -19.5 -67
t-47 -53.5t-54.5 -44.5t-46.5 -50t-19.5 -61q0 -3 5 -43h-39z" />
    <glyph glyph-name="at" unicode="@" horiz-adv-x="762" 
d="M337 147q27 0 53 22.5t40 49.5l36 212q-21 6 -48 6q-61 0 -99.5 -55t-38.5 -143q0 -42 15.5 -67t41.5 -25zM362 -60q-149 0 -233.5 87t-84.5 235q0 160 103 267t254 107q147 0 232 -86.5t85 -201.5q0 -110 -52.5 -177t-140.5 -67q-38 0 -61.5 20t-23.5 54v9h-1
q-19 -36 -50.5 -60t-70.5 -24q-43 0 -71.5 34t-28.5 89q0 104 59.5 177t149.5 73q13 0 35 -3.5t32 -3.5q22 0 37 6l-38 -238q-3 -22 -3 -37q0 -56 56 -56q54 0 91.5 54t37.5 143q0 118 -78.5 186.5t-195.5 68.5q-123 0 -215.5 -93t-92.5 -238q0 -136 73.5 -210t206.5 -74
q71 0 144 25l9 -31q-70 -35 -164 -35z" />
    <glyph glyph-name="A" unicode="A" horiz-adv-x="619" 
d="M203 278h184l-94 268zM3 0v29l26 6q23 5 36 24.5t26 55.5l185 509l60 12l193 -520q16 -43 28.5 -60t34.5 -22l22 -5v-29q-75 3 -106 3q-54 0 -129 -3v29l44 6q30 4 30 37q0 15 -6 31l-45 132h-214l-43 -128q-9 -29 -9 -43q0 -28 22 -30l44 -5v-29q-75 3 -112 3
q-12 0 -87 -3z" />
    <glyph glyph-name="B" unicode="B" horiz-adv-x="555" 
d="M281 42q73 0 110 34.5t37 97.5q0 59 -36.5 94t-105.5 35q-55 0 -85 -3v-202q0 -31 15 -43.5t65 -12.5zM274 348q58 0 92.5 35.5t34.5 83.5q0 114 -131 114q-49 0 -69 -2v-229q23 -2 73 -2zM273 -2q-22 0 -65.5 2t-55.5 2q-57 0 -107 -2v29l38 7q22 4 31.5 20t9.5 59v394
q0 43 -9.5 59t-31.5 20l-38 7v29q25 -1 105 -1q31 0 79 1.5t65 1.5q93 0 142 -39.5t49 -112.5q0 -50 -38 -89t-84 -50v-1q58 -5 104 -46.5t46 -105.5q0 -84 -66.5 -134t-173.5 -50z" />
    <glyph glyph-name="C" unicode="C" horiz-adv-x="601" 
d="M338 -14q-138 0 -218 88t-80 228q0 135 91 234.5t234 99.5q90 0 174 -30q2 -90 5 -130h-39q-18 118 -155 118q-99 0 -161 -83t-62 -202q0 -122 60.5 -201.5t161.5 -79.5q73 0 117.5 28t51.5 83h39q-9 -95 -9 -128q-96 -25 -210 -25z" />
    <glyph glyph-name="D" unicode="D" horiz-adv-x="651" 
d="M282 43q115 0 178.5 71.5t63.5 200.5q0 73 -22 130t-78.5 96t-143.5 39q-37 0 -79 -3v-471q0 -34 14.5 -48.5t66.5 -14.5zM283 -1q-28 0 -71.5 1.5t-61.5 1.5q-35 0 -105 -2v29l38 7q22 4 31.5 20t9.5 59v394q0 43 -9.5 59t-31.5 20l-38 7v29q60 -2 105 -2q21 0 73.5 1.5
t80.5 1.5q146 0 226.5 -82t80.5 -214q0 -146 -90.5 -238t-237.5 -92z" />
    <glyph glyph-name="E" unicode="E" horiz-adv-x="543" 
d="M484 -3q-74 4 -122 4l-204 1q-73 0 -113 -2v29l38 7q22 4 31.5 20t9.5 59v394q0 43 -9.5 59t-31.5 20l-38 7v29q40 -2 113 -2q7 0 74 0.5t111 0.5q128 0 132 4q0 -72 4 -134h-34l-10 44q-9 40 -54 40l-180 1v-234h137q24 0 32 6t11 20l10 48h31q-3 -75 -3 -92
q0 -22 3 -97h-31l-9 43q-3 15 -11.5 22t-32.5 7h-137v-201q0 -31 14.5 -42.5t69.5 -11.5h103q26 0 39.5 9t20.5 30l20 59h35q-16 -99 -19 -147zM475 627z" />
    <glyph glyph-name="F" unicode="F" horiz-adv-x="513" 
d="M45 0v29l38 7q22 4 31.5 20t9.5 59v394q0 43 -9.5 59t-31.5 20l-38 7v29q40 -2 113 -2q149 0 208 1q15 0 109 4q0 -74 4 -136h-35l-9 46q-9 40 -54 40l-180 1v-250h139q24 0 32 6t11 20l10 48h31q-3 -75 -3 -92q0 -22 3 -97h-31l-9 43q-3 15 -11.5 22t-32.5 7h-139v-170
q0 -44 10 -60.5t31 -18.5l60 -7v-29q-75 3 -136 3q-46 0 -121 -3z" />
    <glyph glyph-name="G" unicode="G" horiz-adv-x="631" 
d="M336 -14q-137 0 -216.5 87t-79.5 231q0 142 87 237t223 95q93 0 177 -30q2 -89 6 -143h-39q-5 60 -42 95t-104 35q-100 0 -160.5 -78t-60.5 -204t60 -204t160 -78q81 0 119 23v113q0 43 -9.5 59t-31.5 20l-38 7v29q75 -3 121 -3q28 0 103 3v-29l-31 -6q-21 -5 -29 -21
t-8 -58v-146q-30 -13 -89.5 -23.5t-117.5 -10.5z" />
    <glyph glyph-name="H" unicode="H" horiz-adv-x="723" 
d="M45 0v29l38 7q22 4 31.5 20t9.5 59v394q0 43 -9.5 59t-31.5 20l-38 7v29q50 -2 121 -2q64 0 114 2v-29l-38 -7q-22 -4 -31.5 -20t-9.5 -59v-162h321v162q0 43 -9.5 59t-31.5 20l-38 7v29q50 -2 121 -2q64 0 114 2v-29l-38 -7q-22 -4 -31.5 -20t-9.5 -59v-394
q0 -43 9.5 -59t31.5 -20l38 -7v-29q-75 3 -114 3q-46 0 -121 -3v29l38 7q22 4 31.5 20t9.5 59v188h-321v-188q0 -43 9.5 -59t31.5 -20l38 -7v-29q-75 3 -114 3q-46 0 -121 -3z" />
    <glyph glyph-name="I" unicode="I" horiz-adv-x="325" 
d="M45 0v29l38 7q22 4 31.5 20t9.5 59v394q0 43 -9.5 59t-31.5 20l-38 7v29q50 -2 121 -2q64 0 114 2v-29l-38 -7q-22 -4 -31.5 -20t-9.5 -59v-394q0 -43 9.5 -59t31.5 -20l38 -7v-29q-75 3 -114 3q-46 0 -121 -3z" />
    <glyph glyph-name="J" unicode="J" horiz-adv-x="309" 
d="M35 -166q-31 0 -52 3l10 60q26 -6 48 -6q44 0 59.5 16.5t15.5 71.5v530q0 43 -9.5 59t-31.5 20l-38 7v29q50 -2 121 -2q64 0 114 2v-29l-38 -7q-22 -4 -31.5 -20t-9.5 -59v-477q0 -89 -38 -143.5t-120 -54.5z" />
    <glyph glyph-name="K" unicode="K" horiz-adv-x="612" 
d="M45 0v29l38 7q22 4 31.5 20t9.5 59v394q0 43 -9.5 59t-31.5 20l-38 7v29q50 -2 121 -2q64 0 114 2v-29l-38 -7q-22 -4 -31.5 -20t-9.5 -59v-394q0 -43 9.5 -59t31.5 -20l38 -7v-29q-75 3 -114 3q-46 0 -121 -3zM555 -8q-44 0 -73 15t-56 45q-94 101 -220 264l173 200
q33 38 33 58q0 10 -7.5 14t-30.5 7v29q50 -2 108 -2q43 0 93 2v-29q-70 -6 -160 -107l-130 -146q142 -181 227 -261q55 -55 92 -55v-26q-13 -8 -49 -8z" />
    <glyph glyph-name="L" unicode="L" horiz-adv-x="491" 
d="M454 -3q-74 4 -122 4q-23 0 -81.5 0.5t-92.5 0.5q-73 0 -113 -2v29l38 7q22 4 31.5 20t9.5 59v394q0 43 -9.5 59t-31.5 20l-38 7v29q50 -2 121 -2q76 0 126 2v-29l-50 -7q-22 -3 -31.5 -19t-9.5 -60v-409q0 -31 14.5 -42.5t69.5 -11.5h73q26 0 39 9t21 30l20 59h35
q-18 -112 -19 -147z" />
    <glyph glyph-name="M" unicode="M" horiz-adv-x="846" 
d="M16 0v29l36 7q25 5 39.5 22.5t18.5 60.5l34 382q1 9 1 27q0 52 -42 60l-38 7v29q25 -1 80 -1q64 0 94 1l189 -519l186 519q30 -1 93 -1q53 0 78 1v-29l-38 -7q-42 -8 -42 -60q0 -18 1 -27l27 -386q3 -41 14.5 -58t32.5 -21l34 -7v-29q-75 3 -108 3q-52 0 -127 -3v29l42 7
q39 7 39 49q0 10 -2 30l-32 400l-189 -515h-52l-189 511l-35 -392q-1 -12 -1 -29q0 -53 37 -57l37 -4v-29q-75 3 -116 3q-27 0 -102 -3z" />
    <glyph glyph-name="N" unicode="N" horiz-adv-x="723" 
d="M43 0v29l40 7q21 4 31 22t10 61v390q0 43 -9.5 59t-31.5 20l-38 7v29q25 -1 81 -1q50 0 80 1l349 -510v391q0 43 -10 61t-31 22l-42 7v29q50 -2 108 -2q52 0 102 2v-29l-34 -7q-21 -4 -31 -22t-10 -61v-513h-59l-372 541v-414q0 -43 10 -61t31 -22l38 -7v-29
q-75 3 -103 3q-34 0 -109 -3z" />
    <glyph glyph-name="O" unicode="O" horiz-adv-x="660" 
d="M337 30q93 0 145 78.5t52 199.5q0 135 -54 210t-157 75q-92 0 -144 -80t-52 -201q0 -123 56 -202.5t154 -79.5zM332 -14q-137 0 -214.5 89t-77.5 228t77.5 236t210.5 97q137 0 214.5 -89t77.5 -229q0 -90 -33 -164.5t-99.5 -121t-155.5 -46.5z" />
    <glyph glyph-name="P" unicode="P" horiz-adv-x="519" 
d="M266 310q67 0 104.5 37t37.5 101q0 62 -34 97.5t-98 35.5q-52 0 -75 -2v-265q31 -4 65 -4zM45 0v29l38 7q22 4 31.5 20t9.5 59v394q0 43 -9.5 59t-31.5 20l-38 7v29q25 -1 105 -1q20 0 66 1.5t77 1.5q89 0 144.5 -47t55.5 -128q0 -80 -64 -133t-155 -53q-37 0 -73 3v-153
q0 -44 9.5 -60t31.5 -19l52 -7v-29q-75 3 -128 3q-40 0 -121 -3z" />
    <glyph glyph-name="Q" unicode="Q" horiz-adv-x="660" 
d="M337 30q93 0 145 78.5t52 199.5q0 135 -54 210t-157 75q-92 0 -144 -80t-52 -201q0 -123 56 -202.5t154 -79.5zM555 -169q-52 0 -99 27.5t-95.5 72.5t-66.5 57q-119 12 -186.5 99.5t-67.5 215.5q0 139 78.5 236t209.5 97q136 0 214 -89t78 -229q0 -122 -62 -213.5
t-168 -112.5q20 -11 97 -70q64 -50 122 -50q12 0 26 2v-30q-24 -13 -80 -13z" />
    <glyph glyph-name="R" unicode="R" horiz-adv-x="602" 
d="M273 325q66 0 104.5 36t38.5 96t-35.5 92t-98.5 32q-58 0 -81 -2v-251q35 -3 72 -3zM564 -8q-85 0 -134 59q-67 77 -152 229q-53 0 -77 2v-167q0 -44 9.5 -60t31.5 -19l52 -7v-29q-75 3 -128 3q-40 0 -121 -3v29l38 7q22 4 31.5 20t9.5 59v394q0 43 -9.5 59t-31.5 20
l-38 7v29q25 -1 105 -1q20 0 69.5 1.5t80.5 1.5q90 0 145.5 -41.5t55.5 -122.5q0 -58 -40.5 -107.5t-100.5 -63.5q67 -120 152 -212q49 -53 98 -53v-26q-18 -8 -46 -8z" />
    <glyph glyph-name="S" unicode="S" horiz-adv-x="485" 
d="M219 -14q-63 0 -165 26q0 43 -8 141h39q5 -63 38.5 -93t101.5 -30q60 0 95.5 33t35.5 89q0 36 -22.5 62.5t-56 40t-72.5 31.5t-72.5 37t-56 56.5t-22.5 89.5q0 72 57 119.5t138 47.5q83 0 164 -27v-33q0 -53 4 -102h-38q-8 119 -133 119q-50 0 -84 -29.5t-34 -77.5
q0 -38 22.5 -66t56 -43.5t73 -34.5t73 -37.5t56 -53.5t22.5 -82q0 -76 -60.5 -129.5t-151.5 -53.5z" />
    <glyph glyph-name="T" unicode="T" horiz-adv-x="556" 
d="M155 0v29l43 7q22 3 32 19.5t10 59.5v464q-41 2 -104 2q-42 0 -58.5 -12.5t-20.5 -37.5l-7 -41h-36q5 125 5 138q74 -5 259 -5t259 5q0 -13 5 -138h-36l-7 41q-4 25 -20.5 37.5t-58.5 12.5q-63 0 -104 -2v-464q0 -44 10 -60t31 -19l43 -7v-29q-75 3 -119 3q-51 0 -126 -3
z" />
    <glyph glyph-name="U" unicode="U" horiz-adv-x="701" 
d="M351 -14q-106 0 -173.5 56t-67.5 152v315q0 43 -9.5 59t-31.5 20l-34 7v29q50 -2 117 -2q72 0 122 2v-29l-46 -7q-22 -4 -31.5 -19.5t-9.5 -59.5v-297q0 -82 49 -128t129 -46q75 0 124.5 48t49.5 126v293q0 43 -10 61t-31 22l-40 7v29q50 -2 109 -2q49 0 99 2v-29l-34 -7
q-21 -4 -31 -22t-10 -61v-306q0 -95 -71.5 -154t-168.5 -59z" />
    <glyph glyph-name="V" unicode="V" horiz-adv-x="616" 
d="M278 -8l-184 516q-16 44 -29 61t-34 21l-26 5v29q50 -2 110 -2q74 0 124 2v-29l-44 -6q-29 -4 -29 -37q0 -11 7 -32l150 -435l147 432q9 27 9 43q0 10 -6.5 19.5t-18.5 10.5l-44 5v29q50 -2 108 -2q42 0 92 2v-29l-28 -5q-16 -3 -28.5 -17.5t-18 -27.5t-13.5 -36
l-184 -517h-60z" />
    <glyph glyph-name="W" unicode="W" horiz-adv-x="918" 
d="M268 -8l-175 516q-15 43 -28 60.5t-35 21.5l-26 5v29q50 -2 109 -2q65 0 115 2v-29l-34 -6q-28 -5 -28 -34q0 -13 7 -34l140 -436l123 362l-21 61q-15 43 -28 60.5t-35 21.5l-26 5v29q50 -2 110 -2q69 0 119 2v-29l-40 -6q-29 -5 -29 -34q0 -12 8 -34l140 -436l137 432
q9 29 9 44q0 25 -30 29l-45 5v29q50 -2 110 -2q47 0 97 2v-29l-28 -6q-37 -7 -60 -80l-171 -517h-63l-129 378l-129 -378h-64z" />
    <glyph glyph-name="X" unicode="X" horiz-adv-x="607" 
d="M6 0v29l16 2q44 6 92 76l148 211l-160 236q-13 19 -25 26.5t-33 11.5l-18 3v29q50 -2 110 -2q86 0 136 2v-29l-39 -3q-34 -3 -34 -31q0 -16 19 -43l98 -146l91 145q16 25 16 46q0 10 -7.5 18t-20.5 9l-36 5v29q50 -2 108 -2q55 0 105 2v-29l-16 -3q-44 -8 -95 -83
l-118 -177l173 -251q30 -43 68 -49l17 -3v-29q-75 3 -120 3q-52 0 -127 -3v29l39 3q32 3 32 30q0 14 -19 44l-116 171l-114 -170q-18 -27 -18 -43q0 -27 32 -31l28 -4v-29q-75 3 -113 3q-24 0 -99 -3z" />
    <glyph glyph-name="Y" unicode="Y" horiz-adv-x="588" 
d="M176 0v29l38 7q22 4 31.5 20t9.5 59v146l-160 263q-13 21 -19.5 30.5t-19 21t-26.5 14.5l-24 5v29q50 -2 111 -2q78 0 128 2v-29l-44 -6q-28 -3 -28 -32q0 -16 13 -38l122 -206l119 204q17 30 17 47q0 21 -29 26l-35 5v29q50 -2 108 -2q44 0 94 2v-29l-18 -5
q-23 -6 -42.5 -25.5t-42.5 -56.5l-147 -240v-153q0 -43 9.5 -59t31.5 -20l38 -7v-29q-81 3 -114 3q-40 0 -121 -3z" />
    <glyph glyph-name="Z" unicode="Z" horiz-adv-x="534" 
d="M480 -2q-88 3 -236 3q-84 0 -216 -2v31l362 551h-229q-59 0 -67 -50l-7 -41h-41q11 95 13 136q110 -3 241 -3q57 0 189 2v-31l-360 -549h243q53 0 70 48l15 41h41q-17 -96 -18 -136z" />
    <glyph glyph-name="bracketleft" unicode="[" horiz-adv-x="311" 
d="M106 -194v890h170v-36h-103v-818h103v-36h-170z" />
    <glyph glyph-name="backslash" unicode="\" horiz-adv-x="346" 
d="M273 -111l-285 805l45 14l287 -804z" />
    <glyph glyph-name="bracketright" unicode="]" horiz-adv-x="311" 
d="M35 -194v36h103v818h-103v36h170v-890h-170z" />
    <glyph glyph-name="asciicircum" unicode="^" horiz-adv-x="556" 
d="M112 245l-52 22l195 357h48l193 -358l-50 -21l-167 308z" />
    <glyph glyph-name="underscore" unicode="_" horiz-adv-x="428" 
d="M-4 -149v49h436v-49h-436z" />
    <glyph glyph-name="grave" unicode="`" horiz-adv-x="320" 
d="M231 553l-164 119l44 43l142 -139z" />
    <glyph glyph-name="a" unicode="a" horiz-adv-x="475" 
d="M196 46q65 0 103 44q0 69 3 132q-11 1 -39 1q-149 0 -149 -98q0 -36 22.5 -57.5t59.5 -21.5zM169 -12q-58 0 -94.5 34.5t-36.5 89.5q0 70 57.5 112t153.5 42q39 0 54 -1v58q0 118 -112 118q-65 0 -114 -27l-5 29q19 22 58.5 39.5t78.5 17.5q83 0 126 -42.5t43 -116.5
q0 -37 -2 -117t-2 -127q0 -37 16.5 -50t62.5 -13v-28q-28 -18 -76 -18q-34 0 -53.5 18.5t-19.5 49.5h-2q-15 -25 -53 -46.5t-80 -21.5z" />
    <glyph glyph-name="b" unicode="b" horiz-adv-x="529" 
d="M234 33q78 0 126.5 55.5t48.5 159.5q0 81 -40.5 138t-111.5 57q-49 0 -95 -21v-372q32 -17 72 -17zM215 -12q-67 0 -127 26v540q0 41 -9.5 54t-55.5 22v24q73 21 139 54v-255q52 47 125 47q92 0 146 -65.5t54 -168.5q0 -125 -76.5 -201.5t-195.5 -76.5z" />
    <glyph glyph-name="c" unicode="c" horiz-adv-x="457" 
d="M270 -12q-107 0 -167.5 66.5t-60.5 181.5q0 111 70.5 187.5t169.5 76.5q67 0 133 -24q-4 -44 -4 -114h-38q-2 46 -24.5 70.5t-72.5 24.5q-66 0 -111 -57t-45 -154q0 -94 48.5 -146.5t128.5 -52.5q69 0 116 31l5 -26q-15 -25 -55.5 -44.5t-92.5 -19.5z" />
    <glyph glyph-name="d" unicode="d" horiz-adv-x="549" 
d="M272 45q49 0 95 21v366q-37 17 -72 17q-79 0 -127 -50.5t-48 -153.5q0 -81 40.5 -140.5t111.5 -59.5zM242 -12q-92 0 -146 68t-54 171q0 124 75.5 195.5t196.5 71.5q26 0 53 -5v65q0 41 -9.5 54t-55.5 22v24q73 21 139 54v-584q0 -41 9.5 -54t55.5 -22v-24
q-81 -15 -139 -36v47q-52 -47 -125 -47z" />
    <glyph glyph-name="e" unicode="e" horiz-adv-x="477" 
d="M125 314h216q23 0 23 22q0 48 -28 84t-77 36q-58 0 -92.5 -42t-41.5 -100zM268 -12q-109 0 -167.5 66t-58.5 182q0 115 62 189.5t159 74.5q88 0 136 -55.5t48 -134.5q0 -23 -2 -36h-323q-1 -10 -1 -29q0 -86 43 -142t123 -56q76 0 132 28l3 -25q-15 -25 -58.5 -43.5
t-95.5 -18.5z" />
    <glyph glyph-name="f" unicode="f" horiz-adv-x="334" 
d="M58 0v28l33 5q19 2 26 16.5t7 63.5v328h-66v47h66v34q0 89 47 137.5t121 48.5q48 0 85 -14l-22 -63q-34 23 -83 23q-78 0 -78 -83q0 -9 4 -83h124v-47h-124v-328q0 -49 7 -63t26 -17l45 -5v-28q-75 3 -116 3q-27 0 -102 -3z" />
    <glyph glyph-name="g" unicode="g" horiz-adv-x="483" 
d="M234 217q48 0 74 35t26 86q0 52 -27 85.5t-76 33.5t-75.5 -34t-26.5 -85q0 -55 28.5 -88t76.5 -33zM230 -163q74 0 121 29.5t47 79.5q0 39 -36.5 56.5t-110.5 20.5l-70 3q-84 -35 -84 -91q0 -43 35.5 -70.5t97.5 -27.5zM209 -206q-79 0 -130 33t-51 90q0 42 32 73t78 47
q-56 20 -56 67q0 26 18.5 49t45.5 37q-41 17 -67 55.5t-26 91.5q0 67 51.5 115t128.5 48q39 0 71 -12h157v-41h-96q45 -43 45 -107q0 -70 -51.5 -118t-125.5 -48q-32 0 -49 4q-36 -17 -36 -47q0 -16 17 -28t46 -13l82 -4q76 -3 120.5 -32.5t44.5 -83.5q0 -82 -69.5 -129
t-179.5 -47z" />
    <glyph glyph-name="h" unicode="h" horiz-adv-x="578" 
d="M44 0v28l33 5q19 3 26 17t7 63v441q0 41 -9.5 54t-55.5 22v24q73 21 139 54v-273q28 26 67 45.5t76 19.5q83 0 117.5 -44.5t34.5 -126.5v-216q0 -49 7 -63t26 -17l33 -5v-28q-75 3 -104 3q-27 0 -102 -3v28l33 5q19 3 26 17t7 63v205q0 62 -22.5 92.5t-82.5 30.5
q-56 0 -116 -39v-289q0 -49 7 -63t26 -17l33 -5v-28q-75 3 -104 3q-27 0 -102 -3z" />
    <glyph glyph-name="i" unicode="i" horiz-adv-x="308" 
d="M154 602q-22 0 -37.5 15.5t-15.5 37.5t15.5 37.5t37.5 15.5t37.5 -15.5t15.5 -37.5t-15.5 -37.5t-37.5 -15.5zM45 0v28l46 5q19 2 26 16.5t7 63.5v244q0 41 -9.5 54t-55.5 22v24q79 23 139 48v-392q0 -49 7 -63t26 -17l36 -5v-28q-75 3 -107 3q-40 0 -115 -3z" />
    <glyph glyph-name="j" unicode="j" horiz-adv-x="272" 
d="M140 602q-22 0 -37 15.5t-15 37.5t15 37.5t37 15.5t37.5 -15.5t15.5 -37.5t-15.5 -37.5t-37.5 -15.5zM29 -202q-31 0 -52 3l10 60q26 -6 48 -6q44 0 59.5 16.5t15.5 71.5v414q0 41 -9.5 54t-55.5 22v24q79 23 139 48v-509q0 -198 -155 -198z" />
    <glyph glyph-name="k" unicode="k" horiz-adv-x="519" 
d="M44 0v28l33 5q19 2 26 16.5t7 63.5v441q0 41 -9.5 54t-55.5 22v24q73 21 139 54v-595q0 -49 7 -63t26 -17l33 -5v-28q-75 3 -104 3q-27 0 -102 -3zM474 -8q-56 0 -115 59q-18 19 -39 45t-60 77t-67 86l127 143q19 20 19 38q0 17 -38 19v29q50 -2 98 -2q38 0 88 2v-28
q-66 -5 -152 -102l-69 -76q144 -178 170 -203q4 -3 12.5 -11.5t13 -12.5t13 -10.5t14.5 -9.5t15 -6t18 -4v-26q-13 -7 -48 -7z" />
    <glyph glyph-name="l" unicode="l" horiz-adv-x="294" 
d="M38 0v28l39 5q19 2 26 16.5t7 63.5v441q0 41 -9.5 54t-55.5 22v24q73 21 139 54v-595q0 -49 7 -63t26 -17l36 -5v-28q-75 3 -107 3q-33 0 -108 -3z" />
    <glyph glyph-name="m" unicode="m" horiz-adv-x="871" 
d="M58 0v28l33 5q19 3 26 17t7 63v244q0 41 -9.5 54t-55.5 22v24q79 23 139 48v-70q26 26 64.5 45.5t75.5 19.5q101 0 132 -74q30 30 73.5 52t81.5 22q83 0 115 -42.5t32 -125.5v-219q0 -49 7 -63t26 -17l33 -5v-28q-75 3 -104 3q-27 0 -102 -3v28l33 5q19 3 26 17t7 63v208
q0 63 -20 91.5t-80 28.5q-59 0 -120 -40q7 -29 7 -69v-219q0 -49 7 -63t26 -17l33 -5v-28q-75 3 -104 3q-27 0 -102 -3v28l33 5q19 3 26 17t7 63v208q0 62 -20 89.5t-80 27.5q-58 0 -113 -36v-289q0 -49 7 -63t26 -17l33 -5v-28q-75 3 -104 3q-27 0 -102 -3z" />
    <glyph glyph-name="n" unicode="n" horiz-adv-x="592" 
d="M58 0v28l33 5q19 3 26 17t7 63v244q0 41 -9.5 54t-55.5 22v24q87 25 139 48v-70q28 26 67 45.5t76 19.5q84 0 118 -43.5t34 -125.5v-218q0 -49 7 -63t26 -17l33 -5v-28q-75 3 -104 3q-27 0 -102 -3v28l33 5q19 3 26 17t7 63v207q0 62 -22.5 91.5t-82.5 29.5
q-56 0 -116 -39v-289q0 -49 7 -63t26 -17l33 -5v-28q-75 3 -104 3q-27 0 -102 -3z" />
    <glyph glyph-name="o" unicode="o" 
d="M270 29q69 0 105.5 56t36.5 153q0 102 -37.5 161.5t-107.5 59.5q-66 0 -103.5 -56.5t-37.5 -153.5q0 -103 38.5 -161.5t105.5 -58.5zM264 -12q-107 0 -164.5 68.5t-57.5 183.5q0 110 63 185t166 75q106 0 165 -69.5t59 -182.5q0 -110 -63.5 -185t-167.5 -75z" />
    <glyph glyph-name="p" unicode="p" horiz-adv-x="551" 
d="M256 39q78 0 126.5 54.5t48.5 157.5q0 80 -40 136t-112 56q-49 0 -95 -21v-366q37 -17 72 -17zM44 -194v28l33 5q19 3 26 17t7 63v438q0 41 -10 54t-56 22v24q82 24 140 48v-52q52 47 125 47q92 0 146 -64.5t54 -166.5q0 -125 -76 -200t-196 -75q-26 0 -53 5v-80
q0 -49 7.5 -63.5t25.5 -16.5l46 -5v-28q-75 3 -117 3q-27 0 -102 -3z" />
    <glyph glyph-name="q" unicode="q" horiz-adv-x="529" 
d="M272 45q49 0 95 21v372q-32 17 -72 17q-78 0 -126.5 -55.5t-48.5 -159.5q0 -81 40.5 -138t111.5 -57zM288 -194v28l46 5q19 2 26 16.5t7 63.5v116q-52 -47 -125 -47q-92 0 -146 65.5t-54 168.5q0 125 76.5 201.5t195.5 76.5q15 0 44 -3.5t41 -3.5q21 0 42 7v-581
q0 -49 7 -63t26 -17l33 -5v-28q-75 3 -104 3q-40 0 -115 -3z" />
    <glyph glyph-name="r" unicode="r" horiz-adv-x="369" 
d="M58 0v28l33 5q19 3 26 17t7 63v244q0 41 -9.5 54t-55.5 22v24q87 25 139 48v-75q19 27 57.5 48.5t68.5 21.5q19 0 43 -6l-8 -69q-18 9 -55 9q-59 0 -106 -38v-283q0 -49 7 -63t26 -17l46 -5v-28q-100 4 -117 4q-2 0 -102 -4z" />
    <glyph glyph-name="s" unicode="s" horiz-adv-x="430" 
d="M205 -12q-79 0 -150 23q1 13 1 37q0 26 -4 94h37q7 -58 31 -84t84 -26q48 0 77.5 24.5t29.5 66.5q0 34 -26 55.5t-62.5 33.5t-73.5 27t-63 47t-26 82q0 59 47.5 95.5t121.5 36.5q68 0 133 -26q-1 -15 -1 -41q0 -29 3 -71h-37q-4 49 -28.5 73t-73.5 24q-46 0 -72.5 -20
t-26.5 -57q0 -27 18.5 -46.5t46.5 -29.5t61 -24t61 -29t46.5 -45.5t18.5 -72.5q0 -61 -49.5 -104t-123.5 -43z" />
    <glyph glyph-name="t" unicode="t" horiz-adv-x="328" 
d="M206 -12q-60 0 -84.5 27.5t-24.5 90.5v335h-61v32q45 24 67.5 54t35.5 78h32v-117h145v-47h-145v-318q0 -45 15.5 -65t51.5 -20q39 0 73 12l4 -20q-11 -17 -43 -29.5t-66 -12.5z" />
    <glyph glyph-name="u" unicode="u" horiz-adv-x="576" 
d="M394 -12v65q-28 -26 -67 -45.5t-76 -19.5q-84 0 -118 43.5t-34 125.5v219q0 41 -9.5 54t-55.5 22v24q80 14 139 29v-337q0 -62 22.5 -91.5t82.5 -29.5q56 0 116 39v290q0 41 -9.5 54t-55.5 22v24q80 14 139 29v-386q0 -41 9.5 -54t55.5 -22v-24q-66 -9 -139 -31z" />
    <glyph glyph-name="v" unicode="v" horiz-adv-x="487" 
d="M223 -8l-159 429q-8 23 -19.5 29.5t-34.5 9.5v28q64 -2 90 -2q47 0 109 2v-28l-15 -2q-24 -4 -35.5 -11t-11.5 -26q0 -17 11 -47l101 -279l98 272q13 37 13 54q0 15 -7.5 23.5t-16.5 11t-23 3.5l-13 1v28q50 -2 84 -2q43 0 93 2v-28q-35 -3 -49 -20t-32 -64l-145 -384
h-38z" />
    <glyph glyph-name="w" unicode="w" horiz-adv-x="741" 
d="M218 -5l-152 426q-8 23 -19.5 29.5t-34.5 9.5v28q64 -2 92 -2q45 0 107 2v-28l-16 -2q-23 -3 -34.5 -11t-11.5 -26q0 -20 10 -47l95 -274l102 256l-23 65q-8 23 -19.5 29.5t-34.5 9.5v28q64 -2 92 -2q45 0 107 2v-28l-15 -2q-23 -3 -35 -11t-12 -26q0 -17 11 -47l93 -274
l92 267q12 34 12 54q0 21 -12 28.5t-35 9.5l-13 1v28q50 -2 94 -2q33 0 83 2v-28q-35 -4 -49.5 -21t-31.5 -63l-138 -381h-38l-107 303l-121 -303h-38z" />
    <glyph glyph-name="x" unicode="x" horiz-adv-x="500" 
d="M10 0v28q54 5 83 46l120 171l-116 170q-25 35 -77 45v28q50 -2 104 -2q45 0 95 2v-28q-43 -3 -43 -23q0 -14 20 -43l66 -100l60 91q21 30 21 49t-30 24l-12 2v28q50 -2 82 -2q43 0 93 2v-28l-23 -4q-38 -7 -72 -56l-96 -140l133 -195q20 -29 76 -37v-28q-75 3 -110 3
q-15 0 -90 -3l-1 28q2 0 8.5 1.5t9 2l7.5 1.5t7 2.5t5 4t4 5.5t1 7q0 13 -23 47l-75 112l-73 -108q-24 -37 -24 -53q0 -19 27 -21l16 -1v-28q-75 3 -86 3q-12 0 -87 -3z" />
    <glyph glyph-name="y" unicode="y" horiz-adv-x="491" 
d="M79 -202q-22 0 -39 3l7 70q20 -5 47 -5q91 0 131 129l-162 426q-13 33 -40 37l-14 2v28q64 -2 93 -2q47 0 109 2v-28q-32 -4 -47 -11t-15 -28q0 -17 11 -47l103 -274l97 267q13 37 13 54q0 16 -9.5 25t-19.5 11t-31 3v28q50 -2 84 -2q43 0 93 2v-28q-35 -3 -49 -20
t-32 -64l-158 -423q-29 -76 -69.5 -115.5t-102.5 -39.5z" />
    <glyph glyph-name="z" unicode="z" horiz-adv-x="453" 
d="M405 -2q-84 4 -179 4q-111 0 -195 -2v24l284 421h-172q-27 0 -38.5 -11.5t-16.5 -36.5l-6 -31h-39q9 80 11 126q110 -6 177 -6q18 0 76.5 1t103.5 1v-24l-283 -421h183q24 0 37.5 10.5t22.5 35.5l15 41h34q-15 -84 -15 -132z" />
    <glyph glyph-name="braceleft" unicode="{" horiz-adv-x="324" 
d="M227 -194q-43 0 -73 27.5t-30 80.5v201q0 52 -24.5 85t-73.5 34v36q48 1 73 33.5t25 85.5v200q0 53 29.5 80t72.5 27h63v-34h-41q-33 0 -45 -19.5t-12 -59.5v-197q0 -52 -28.5 -85.5t-74.5 -45.5v-2q47 -13 75 -48.5t28 -89.5v-200q0 -39 11.5 -57t44.5 -18h42v-34h-62z
" />
    <glyph glyph-name="bar" unicode="|" horiz-adv-x="352" 
d="M152 -250v1000h48v-1000h-48z" />
    <glyph glyph-name="braceright" unicode="}" horiz-adv-x="324" 
d="M35 -194v34h42q33 0 44.5 18t11.5 57v200q0 54 28 89.5t75 48.5v2q-46 12 -74.5 45.5t-28.5 85.5v197q0 40 -12 59.5t-45 19.5h-41v34h63q43 0 72.5 -27t29.5 -80v-200q0 -53 25 -85.5t73 -33.5v-36q-49 -1 -73.5 -34t-24.5 -85v-201q0 -53 -30 -80.5t-73 -27.5h-62z" />
    <glyph glyph-name="asciitilde" unicode="~" horiz-adv-x="538" 
d="M359 182q-38 0 -97 43q-57 42 -88 42q-46 0 -76 -60l-33 23q18 38 48 66t67 28q23 0 46.5 -9t36 -17.5t37.5 -27.5q37 -28 67 -28q50 0 76 58l30 -22q-16 -38 -46 -67t-68 -29z" />
    <glyph glyph-name="uni00A0" unicode="&#xa0;" horiz-adv-x="206" 
 />
    <glyph glyph-name="exclamdown" unicode="&#xa1;" horiz-adv-x="263" 
d="M150 314l29 -452h-94l26 452h39zM131 500q23 0 39.5 -16.5t16.5 -39.5t-16.5 -39t-39.5 -16t-39 16t-16 39t16 39.5t39 16.5z" />
    <glyph glyph-name="cent" unicode="&#xa2;" horiz-adv-x="540" 
d="M150 244q0 -74 36 -125.5t100 -67.5v400q-60 -9 -98 -64t-38 -143zM286 -130v118q-100 8 -157 75.5t-57 170.5q0 99 61 174.5t153 88.5v105h41v-102q70 -1 136 -24q-4 -50 -4 -109h-30q-16 80 -102 85v-407h10q75 0 125 33l5 -26q-14 -23 -51 -42t-89 -22v-118h-41z" />
    <glyph glyph-name="sterling" unicode="&#xa3;" horiz-adv-x="540" 
d="M74 0v29q108 57 108 163q0 45 -16 95h-83v41h70q-31 93 -31 154q0 72 51 113t129 41q57 0 110 -16v-44q-46 16 -98 16q-51 0 -82 -29.5t-31 -83.5q0 -56 30 -151h154v-41h-141q14 -50 14 -77q0 -56 -26 -98t-63 -66h173q26 0 39.5 9t20.5 30l20 59h35q-15 -99 -19 -147
q-74 4 -112 4l-139 1q-73 0 -113 -2z" />
    <glyph glyph-name="currency" unicode="&#xa4;" horiz-adv-x="502" 
d="M251 114q55 0 83.5 38t28.5 91q0 54 -28.5 92.5t-83.5 38.5q-54 0 -84 -39t-30 -92q0 -52 30 -90.5t84 -38.5zM94 -14l-44 31l76 95q-50 56 -50 131q0 76 49 131l-74 94l44 32l71 -96q42 20 85 20q49 0 87 -18l70 95l44 -32l-75 -94q48 -56 48 -132q0 -74 -48 -131
q8 -11 34.5 -43.5t40.5 -51.5l-44 -31l-72 96q-43 -19 -85 -19q-49 0 -86 18z" />
    <glyph glyph-name="yen" unicode="&#xa5;" horiz-adv-x="540" 
d="M97 221v38h133v2l-129 263q-12 25 -18 35t-16.5 19t-25.5 12l-25 5v29q50 -2 108 -2q73 0 123 2v-29l-44 -6q-27 -3 -27 -32q0 -12 12 -38l97 -211l91 205q19 40 19 51q0 23 -23 26l-44 5v29q50 -2 108 -2q37 0 87 2v-29l-28 -5q-24 -5 -39.5 -24t-33.5 -57l-115 -241v-9
h137v-38h-137v-67h137v-38h-137v-1q0 -43 9.5 -59t31.5 -20l38 -7v-29q-50 2 -114 2q-71 0 -121 -2v29l38 7q22 4 31.5 20t9.5 59v1h-133v38h133v67h-133z" />
    <glyph glyph-name="brokenbar" unicode="&#xa6;" horiz-adv-x="348" 
d="M152 382v368h44v-368h-44zM152 -250v378h44v-378h-44z" />
    <glyph glyph-name="section" unicode="&#xa7;" horiz-adv-x="464" 
d="M289 150q38 25 38 72q0 29 -26.5 66.5t-75 87.5t-56.5 60q-36 -24 -36 -74q0 -30 25.5 -66.5t74.5 -87t56 -58.5zM199 -123q-56 0 -119 24q1 8 1 29q0 51 -5 89h36q11 -99 93 -99q34 0 58 24t24 57q0 30 -22 63.5t-54 65t-63.5 64.5t-53.5 74t-22 82q0 72 71 120
q-39 42 -39 104q0 57 45.5 95.5t117.5 38.5q69 0 123 -26q0 -5 -0.5 -20.5t-0.5 -24.5q0 -33 3 -68h-36q-10 99 -101 99q-37 0 -58.5 -21t-21.5 -60q0 -31 21.5 -65t52.5 -65t62.5 -63.5t53 -73t21.5 -81.5q0 -73 -72 -120q44 -58 44 -107q0 -61 -46.5 -98t-112.5 -37z" />
    <glyph glyph-name="dieresis" unicode="&#xa8;" horiz-adv-x="320" 
d="M246 560q-20 0 -33 13t-13 33t13 33t33 13t33 -13t13 -33t-13 -33t-33 -13zM75 560q-20 0 -33 13t-13 33t13 33t33 13t33 -13t13 -33t-13 -33t-33 -13z" />
    <glyph glyph-name="copyright" unicode="&#xa9;" horiz-adv-x="738" 
d="M369 29q120 0 198 79.5t78 203.5q0 122 -78 201.5t-198 79.5q-119 0 -197.5 -79.5t-78.5 -201.5q0 -123 78 -203t198 -80zM369 -14q-135 0 -230 95t-95 231q0 135 95 229.5t230 94.5t230 -94.5t95 -229.5q0 -136 -95 -231t-230 -95zM371 120q-82 0 -127.5 54.5
t-45.5 138.5q0 78 52 132.5t135 54.5q47 0 103 -18q0 -43 3 -82h-32q-10 66 -82 66q-54 0 -85.5 -43t-31.5 -109q0 -69 31.5 -115t85.5 -46q80 0 89 63h32q-4 -33 -6 -79q-53 -17 -121 -17z" />
    <glyph glyph-name="ordfeminine" unicode="&#xaa;" horiz-adv-x="386" 
d="M157 314q44 0 70 30q0 65 1 82q-6 1 -21 1q-104 0 -104 -61q0 -24 15 -38t39 -14zM137 264q-43 0 -70 25.5t-27 66.5q0 51 42.5 79.5t113.5 28.5q23 0 34 -1v52q0 75 -79 75q-35 0 -83 -25l-5 32q16 15 44.5 26.5t57.5 11.5q126 0 126 -112q0 -31 -1.5 -87t-1.5 -87
q0 -24 13 -33.5t45 -9.5v-27q-23 -15 -57 -15q-24 0 -40.5 14t-18.5 34q-31 -48 -93 -48z" />
    <glyph glyph-name="guillemotleft" unicode="&#xab;" horiz-adv-x="478" 
d="M404 45l-204 200l204 200l24 -22l-140 -178l140 -178zM234 45l-204 200l204 200l24 -22l-140 -178l140 -178z" />
    <glyph glyph-name="logicalnot" unicode="&#xac;" 
d="M438 116v136h-388v49h437v-185h-49z" />
    <glyph glyph-name="uni00AD" unicode="&#xad;" horiz-adv-x="353" 
d="M46 227v67h261v-67h-261z" />
    <glyph glyph-name="registered" unicode="&#xae;" horiz-adv-x="738" 
d="M355 323q35 0 56 20t21 53q0 27 -19 43.5t-52 16.5h-40v-131q24 -2 34 -2zM506 123q-38 0 -71 37q-32 37 -77 127q-23 0 -37 1v-91q0 -34 22 -39l29 -6v-24q-50 2 -76 2q-28 0 -78 -2v23l29 7q17 5 17 39v225q0 25 -7 32.5t-26 10.5l-13 1v28q25 -1 73 -1q18 0 42 0.5
t41 0.5q54 0 87.5 -24.5t33.5 -71.5q0 -37 -21.5 -64t-55.5 -39q34 -68 68 -109q24 -27 50 -36v-22q-10 -5 -30 -5zM369 29q120 0 198 79.5t78 203.5q0 122 -78 201.5t-198 79.5q-119 0 -197.5 -79.5t-78.5 -201.5q0 -123 78 -203t198 -80zM369 -14q-135 0 -230 95t-95 231
q0 135 95 229.5t230 94.5t230 -94.5t95 -229.5q0 -136 -95 -231t-230 -95z" />
    <glyph glyph-name="macron" unicode="&#xaf;" horiz-adv-x="320" 
d="M24 566v46h271v-46h-271z" />
    <glyph glyph-name="degree" unicode="&#xb0;" horiz-adv-x="346" 
d="M173 495q36 0 59.5 25t23.5 61t-24 61.5t-59 25.5t-59 -25.5t-24 -61.5t23.5 -61t59.5 -25zM173 455q-52 0 -89.5 37t-37.5 89q0 53 37 90t90 37t90 -37t37 -90q0 -52 -37 -89t-90 -37z" />
    <glyph glyph-name="plusminus" unicode="&#xb1;" 
d="M37 -96v49h469v-49h-469zM240 0v228h-209v49h209v211h52v-211h208v-49h-208v-228h-52z" />
    <glyph glyph-name="twosuperior" unicode="&#xb2;" horiz-adv-x="347" 
d="M28 301v27q11 9 41 32t49.5 40t43 40t35.5 46t12 45q0 29 -21 46t-53 17q-37 0 -83 -30l-2 30q42 42 106 42q53 0 84.5 -25t31.5 -69q0 -83 -169 -194q6 0 51.5 0.5t80.5 0.5q16 0 23.5 8t14.5 30h29q-14 -46 -19 -86h-255z" />
    <glyph glyph-name="threesuperior" unicode="&#xb3;" horiz-adv-x="306" 
d="M97 288q-28 0 -51 7l7 34q24 -6 51 -6q47 0 68.5 19.5t21.5 50.5q0 27 -30.5 43t-87.5 16l6 28q47 0 71 21t24 52q0 19 -14 31t-41 12q-38 0 -72 -21l-3 28q42 33 90 33q47 0 74.5 -20t27.5 -53q0 -29 -16 -50t-41 -30v-2q33 -5 54.5 -28t21.5 -52q0 -51 -43.5 -82
t-117.5 -31z" />
    <glyph glyph-name="acute" unicode="&#xb4;" horiz-adv-x="320" 
d="M89 554l-22 23l142 139l44 -43z" />
    <glyph glyph-name="mu" unicode="&#xb5;" horiz-adv-x="563" 
d="M84 -194q0 30 3.5 107.5t3.5 106.5v356q0 41 -9.5 54t-55.5 22v24q80 14 139 29v-339q0 -62 22.5 -91.5t82.5 -29.5q56 0 116 39v292q0 41 -9.5 54t-55.5 22v24q80 14 139 29v-388q0 -41 9.5 -54t55.5 -22v-24q-66 -9 -139 -31v65q-28 -26 -67 -45.5t-76 -19.5
q-62 0 -94 34q0 -29 3.5 -106.5t3.5 -107.5h-72z" />
    <glyph glyph-name="paragraph" unicode="&#xb6;" horiz-adv-x="563" 
d="M250 -195v426q-82 0 -138.5 54t-56.5 141q0 88 56 143t139 55h267v-29l-38 -7q-22 -4 -31.5 -20t-9.5 -59v-704h-49v776h-89v-776h-50z" />
    <glyph glyph-name="periodcentered" unicode="&#xb7;" horiz-adv-x="274" 
d="M137 230q-25 0 -43 18t-18 43t17.5 42.5t43.5 17.5t43.5 -17.5t17.5 -42.5t-18 -43t-43 -18z" />
    <glyph glyph-name="cedilla" unicode="&#xb8;" horiz-adv-x="320" 
d="M124 -205q-23 0 -42 7v27q20 -8 47 -8q26 0 41.5 14.5t15.5 38.5q0 44 -74 48l31 83h30l-18 -52q36 -2 59.5 -21.5t23.5 -50.5q0 -43 -31.5 -64.5t-82.5 -21.5z" />
    <glyph glyph-name="onesuperior" unicode="&#xb9;" horiz-adv-x="274" 
d="M37 554l-2 28l131 61v-271q0 -26 3.5 -33t13.5 -8l49 -4v-26q-51 3 -95 3q-53 0 -95 -3v26l49 4q10 1 13.5 8t3.5 33v191q0 9 -7 9q-3 0 -19 -4z" />
    <glyph glyph-name="ordmasculine" unicode="&#xba;" horiz-adv-x="409" 
d="M206 305q46 0 70.5 36.5t24.5 103.5q0 71 -25.5 111.5t-72.5 40.5q-44 0 -69.5 -38.5t-25.5 -105.5q0 -71 26 -109.5t72 -38.5zM201 265q-79 0 -120 48t-41 133q0 81 45.5 135.5t120.5 54.5q78 0 120.5 -50t42.5 -134q0 -81 -46 -134t-122 -53z" />
    <glyph glyph-name="guillemotright" unicode="&#xbb;" horiz-adv-x="498" 
d="M244 45l-24 22l140 178l-140 178l24 22l204 -200zM74 45l-24 22l140 178l-140 178l24 22l204 -200z" />
    <glyph glyph-name="onequarter" unicode="&#xbc;" horiz-adv-x="711" 
d="M37 554l-2 28l131 61v-271q0 -26 3.5 -33t13.5 -8l49 -4v-26q-51 3 -95 3q-53 0 -95 -3v26l49 4q10 1 13.5 8t3.5 33v191q0 9 -7 9q-3 0 -19 -4zM134 -37l-34 17l414 663l34 -19zM424 118h115v148zM539 0v72h-173v25l185 242h45v-221h67l-6 -46h-61v-72h-57z" />
    <glyph glyph-name="onehalf" unicode="&#xbd;" horiz-adv-x="740" 
d="M37 554l-2 28l131 61v-271q0 -26 3.5 -33t13.5 -8l49 -4v-26q-51 3 -95 3q-53 0 -95 -3v26l49 4q10 1 13.5 8t3.5 33v191q0 9 -7 9q-3 0 -19 -4zM134 -37l-34 17l414 663l34 -19zM412 0v27q11 9 41 32t49.5 40t43 40t35.5 46t12 45q0 29 -21 46t-53 17q-37 0 -83 -30
l-2 30q42 42 106 42q53 0 84.5 -25t31.5 -69q0 -83 -169 -194q6 0 51.5 0.5t80.5 0.5q16 0 23.5 8t14.5 30h29q-14 -46 -19 -86h-255z" />
    <glyph glyph-name="threequarters" unicode="&#xbe;" horiz-adv-x="688" 
d="M97 288q-28 0 -51 7l7 34q24 -6 51 -6q47 0 68.5 19.5t21.5 50.5q0 27 -30.5 43t-87.5 16l6 28q47 0 71 21t24 52q0 19 -14 31t-41 12q-38 0 -72 -21l-3 28q42 33 90 33q47 0 74.5 -20t27.5 -53q0 -29 -16 -50t-41 -30v-2q33 -5 54.5 -28t21.5 -52q0 -51 -43.5 -82
t-117.5 -31zM154 -37l-34 17l414 663l34 -19zM401 118h115v148zM516 0v72h-173v25l185 242h45v-221h67l-6 -46h-61v-72h-57z" />
    <glyph glyph-name="questiondown" unicode="&#xbf;" horiz-adv-x="366" 
d="M230 500q23 0 39.5 -16.5t16.5 -39.5t-16.5 -39t-39.5 -16t-39 16t-16 39t16 39.5t39 16.5zM257 309q7 -32 7 -50q0 -47 -23.5 -83.5t-51 -57t-51 -51.5t-23.5 -68q0 -45 28.5 -71t83.5 -26q57 0 102 30l11 -31q-58 -51 -137 -51q-80 0 -123.5 36.5t-43.5 103.5
q0 36 19.5 67t46.5 53.5t54.5 44.5t47 50t19.5 61q0 3 -5 43h39z" />
    <glyph glyph-name="Agrave" unicode="&#xc0;" horiz-adv-x="619" 
d="M349 667l-164 119l44 43l142 -139zM203 278h184l-94 268zM3 0v29l26 6q23 5 36 24.5t26 55.5l185 509l60 12l193 -520q16 -43 28.5 -60t34.5 -22l22 -5v-29q-75 3 -106 3q-54 0 -129 -3v29l44 6q30 4 30 37q0 15 -6 31l-45 132h-214l-43 -128q-9 -29 -9 -43q0 -28 22 -30
l44 -5v-29q-75 3 -112 3q-12 0 -87 -3z" />
    <glyph glyph-name="Aacute" unicode="&#xc1;" horiz-adv-x="619" 
d="M267 666l-22 23l142 139l44 -43zM203 278h184l-94 268zM3 0v29l26 6q23 5 36 24.5t26 55.5l185 509l60 12l193 -520q16 -43 28.5 -60t34.5 -22l22 -5v-29q-75 3 -106 3q-54 0 -129 -3v29l44 6q30 4 30 37q0 15 -6 31l-45 132h-214l-43 -128q-9 -29 -9 -43q0 -28 22 -30
l44 -5v-29q-75 3 -112 3q-12 0 -87 -3z" />
    <glyph glyph-name="Acircumflex" unicode="&#xc2;" horiz-adv-x="619" 
d="M194 667l-22 21l136 132l136 -132l-22 -21l-114 85zM203 278h184l-94 268zM3 0v29l26 6q23 5 36 24.5t26 55.5l185 509l60 12l193 -520q16 -43 28.5 -60t34.5 -22l22 -5v-29q-75 3 -106 3q-54 0 -129 -3v29l44 6q30 4 30 37q0 15 -6 31l-45 132h-214l-43 -128
q-9 -29 -9 -43q0 -28 22 -30l44 -5v-29q-75 3 -112 3q-12 0 -87 -3z" />
    <glyph glyph-name="Atilde" unicode="&#xc3;" horiz-adv-x="619" 
d="M376 678q-30 0 -78 26q-38 23 -64 23q-41 0 -59 -42l-24 15q34 78 89 78q30 0 78 -26q38 -23 64 -23q19 0 35 11.5t24 30.5l24 -15q-34 -78 -89 -78zM203 278h184l-94 268zM3 0v29l26 6q23 5 36 24.5t26 55.5l185 509l60 12l193 -520q16 -43 28.5 -60t34.5 -22l22 -5v-29
q-75 3 -106 3q-54 0 -129 -3v29l44 6q30 4 30 37q0 15 -6 31l-45 132h-214l-43 -128q-9 -29 -9 -43q0 -28 22 -30l44 -5v-29q-75 3 -112 3q-12 0 -87 -3z" />
    <glyph glyph-name="Adieresis" unicode="&#xc4;" horiz-adv-x="619" 
d="M394 686q-20 0 -33 13t-13 33t13 33t33 13t33 -13t13 -33t-13 -33t-33 -13zM223 686q-20 0 -33 13t-13 33t13 33t33 13t33 -13t13 -33t-13 -33t-33 -13zM203 278h184l-94 268zM3 0v29l26 6q23 5 36 24.5t26 55.5l185 509l60 12l193 -520q16 -43 28.5 -60t34.5 -22l22 -5
v-29q-75 3 -106 3q-54 0 -129 -3v29l44 6q30 4 30 37q0 15 -6 31l-45 132h-214l-43 -128q-9 -29 -9 -43q0 -28 22 -30l44 -5v-29q-75 3 -112 3q-12 0 -87 -3z" />
    <glyph glyph-name="Aring" unicode="&#xc5;" horiz-adv-x="619" 
d="M309 697q20 0 32 14t12 34q0 21 -12 35t-32 14t-31.5 -13.5t-11.5 -35.5q0 -20 11.5 -34t31.5 -14zM309 669q-31 0 -54.5 22t-23.5 54t23.5 54.5t54.5 22.5t54.5 -22.5t23.5 -54.5t-23.5 -54t-54.5 -22zM203 278h184l-94 268zM3 0v29l26 6q23 5 36 24.5t26 55.5l185 509
l60 12l193 -520q16 -43 28.5 -60t34.5 -22l22 -5v-29q-75 3 -106 3q-54 0 -129 -3v29l44 6q30 4 30 37q0 15 -6 31l-45 132h-214l-43 -128q-9 -29 -9 -43q0 -28 22 -30l44 -5v-29q-75 3 -112 3q-12 0 -87 -3z" />
    <glyph glyph-name="AE" unicode="&#xc6;" horiz-adv-x="847" 
d="M261 278h167v291h-2zM-4 0v29l23 5q43 9 81 71l261 437q11 18 11 30q0 18 -25 21l-15 2v29q40 -2 105 -2q174 0 233 1q15 0 109 4q0 -72 4 -134h-34l-10 44q-9 40 -54 40l-180 1v-234h137q24 0 32 5.5t11 20.5l10 48h29q-3 -75 -3 -92q0 -22 3 -97h-29l-9 43
q-2 10 -5 15.5t-12.5 9.5t-26.5 4h-137v-201q0 -31 14.5 -42.5t69.5 -11.5h103q26 0 39 9t21 30l20 59h35q-18 -112 -19 -147q-74 4 -122 4l-204 1q-33 0 -113 -4v29l38 7q22 4 31.5 20t9.5 59v122h-190l-73 -128q-18 -34 -18 -46q0 -23 25 -27l29 -5v-29q-75 3 -113 3
q-17 0 -92 -3z" />
    <glyph glyph-name="Ccedilla" unicode="&#xc7;" horiz-adv-x="601" 
d="M291 -205q-23 0 -42 7v27q20 -8 47 -8q26 0 41.5 14.5t15.5 38.5q0 44 -74 48l24 66q-123 11 -193 97t-70 217q0 135 91 234.5t234 99.5q90 0 174 -30q2 -90 5 -130h-39q-18 118 -155 118q-99 0 -161 -83t-62 -202q0 -122 60.5 -201.5t161.5 -79.5q73 0 117.5 28t51.5 83
h39q-9 -95 -9 -128q-96 -25 -210 -25h-5l-11 -33q36 -2 59.5 -21.5t23.5 -50.5q0 -43 -31.5 -64.5t-82.5 -21.5z" />
    <glyph glyph-name="Egrave" unicode="&#xc8;" horiz-adv-x="543" 
d="M304 667l-164 119l44 43l142 -139zM484 -3q-74 4 -122 4l-204 1q-73 0 -113 -2v29l38 7q22 4 31.5 20t9.5 59v394q0 43 -9.5 59t-31.5 20l-38 7v29q40 -2 113 -2q7 0 74 0.5t111 0.5q128 0 132 4q0 -72 4 -134h-34l-10 44q-9 40 -54 40l-180 1v-234h137q24 0 32 6t11 20
l10 48h31q-3 -75 -3 -92q0 -22 3 -97h-31l-9 43q-3 15 -11.5 22t-32.5 7h-137v-201q0 -31 14.5 -42.5t69.5 -11.5h103q26 0 39.5 9t20.5 30l20 59h35q-16 -99 -19 -147zM475 627z" />
    <glyph glyph-name="Eacute" unicode="&#xc9;" horiz-adv-x="543" 
d="M222 666l-22 23l142 139l44 -43zM484 -3q-74 4 -122 4l-204 1q-73 0 -113 -2v29l38 7q22 4 31.5 20t9.5 59v394q0 43 -9.5 59t-31.5 20l-38 7v29q40 -2 113 -2q7 0 74 0.5t111 0.5q128 0 132 4q0 -72 4 -134h-34l-10 44q-9 40 -54 40l-180 1v-234h137q24 0 32 6t11 20
l10 48h31q-3 -75 -3 -92q0 -22 3 -97h-31l-9 43q-3 15 -11.5 22t-32.5 7h-137v-201q0 -31 14.5 -42.5t69.5 -11.5h103q26 0 39.5 9t20.5 30l20 59h35q-16 -99 -19 -147zM475 627z" />
    <glyph glyph-name="Ecircumflex" unicode="&#xca;" horiz-adv-x="543" 
d="M149 667l-22 21l136 132l136 -132l-22 -21l-114 85zM484 -3q-74 4 -122 4l-204 1q-73 0 -113 -2v29l38 7q22 4 31.5 20t9.5 59v394q0 43 -9.5 59t-31.5 20l-38 7v29q40 -2 113 -2q7 0 74 0.5t111 0.5q128 0 132 4q0 -72 4 -134h-34l-10 44q-9 40 -54 40l-180 1v-234h137
q24 0 32 6t11 20l10 48h31q-3 -75 -3 -92q0 -22 3 -97h-31l-9 43q-3 15 -11.5 22t-32.5 7h-137v-201q0 -31 14.5 -42.5t69.5 -11.5h103q26 0 39.5 9t20.5 30l20 59h35q-16 -99 -19 -147zM475 627z" />
    <glyph glyph-name="Edieresis" unicode="&#xcb;" horiz-adv-x="543" 
d="M349 686q-20 0 -33 13t-13 33t13 33t33 13t33 -13t13 -33t-13 -33t-33 -13zM178 686q-20 0 -33 13t-13 33t13 33t33 13t33 -13t13 -33t-13 -33t-33 -13zM484 -3q-74 4 -122 4l-204 1q-73 0 -113 -2v29l38 7q22 4 31.5 20t9.5 59v394q0 43 -9.5 59t-31.5 20l-38 7v29
q40 -2 113 -2q7 0 74 0.5t111 0.5q128 0 132 4q0 -72 4 -134h-34l-10 44q-9 40 -54 40l-180 1v-234h137q24 0 32 6t11 20l10 48h31q-3 -75 -3 -92q0 -22 3 -97h-31l-9 43q-3 15 -11.5 22t-32.5 7h-137v-201q0 -31 14.5 -42.5t69.5 -11.5h103q26 0 39.5 9t20.5 30l20 59h35
q-16 -99 -19 -147zM475 627z" />
    <glyph glyph-name="Igrave" unicode="&#xcc;" horiz-adv-x="325" 
d="M203 667l-164 119l44 43l142 -139zM45 0v29l38 7q22 4 31.5 20t9.5 59v394q0 43 -9.5 59t-31.5 20l-38 7v29q50 -2 121 -2q64 0 114 2v-29l-38 -7q-22 -4 -31.5 -20t-9.5 -59v-394q0 -43 9.5 -59t31.5 -20l38 -7v-29q-75 3 -114 3q-46 0 -121 -3z" />
    <glyph glyph-name="Iacute" unicode="&#xcd;" horiz-adv-x="325" 
d="M121 666l-22 23l142 139l44 -43zM45 0v29l38 7q22 4 31.5 20t9.5 59v394q0 43 -9.5 59t-31.5 20l-38 7v29q50 -2 121 -2q64 0 114 2v-29l-38 -7q-22 -4 -31.5 -20t-9.5 -59v-394q0 -43 9.5 -59t31.5 -20l38 -7v-29q-75 3 -114 3q-46 0 -121 -3z" />
    <glyph glyph-name="Icircumflex" unicode="&#xce;" horiz-adv-x="325" 
d="M48 667l-22 21l136 132l136 -132l-22 -21l-114 85zM45 0v29l38 7q22 4 31.5 20t9.5 59v394q0 43 -9.5 59t-31.5 20l-38 7v29q50 -2 121 -2q64 0 114 2v-29l-38 -7q-22 -4 -31.5 -20t-9.5 -59v-394q0 -43 9.5 -59t31.5 -20l38 -7v-29q-75 3 -114 3q-46 0 -121 -3z" />
    <glyph glyph-name="Idieresis" unicode="&#xcf;" horiz-adv-x="325" 
d="M248 686q-20 0 -33 13t-13 33t13 33t33 13t33 -13t13 -33t-13 -33t-33 -13zM77 686q-20 0 -33 13t-13 33t13 33t33 13t33 -13t13 -33t-13 -33t-33 -13zM45 0v29l38 7q22 4 31.5 20t9.5 59v394q0 43 -9.5 59t-31.5 20l-38 7v29q50 -2 121 -2q64 0 114 2v-29l-38 -7
q-22 -4 -31.5 -20t-9.5 -59v-394q0 -43 9.5 -59t31.5 -20l38 -7v-29q-75 3 -114 3q-46 0 -121 -3z" />
    <glyph glyph-name="Eth" unicode="&#xd0;" horiz-adv-x="661" 
d="M292 43q115 0 178.5 71.5t63.5 200.5q0 73 -22 130t-78.5 96t-143.5 39q-37 0 -79 -3v-237h88v-41h-88v-193q0 -34 14.5 -48.5t66.5 -14.5zM57 299v41h77v169q0 43 -9.5 59t-31.5 20l-38 7v29q60 -2 105 -2q21 0 73.5 1.5t80.5 1.5q146 0 226.5 -82t80.5 -214
q0 -146 -90.5 -238t-237.5 -92q-28 0 -71.5 1.5t-61.5 1.5q-35 0 -105 -2v29l38 7q22 4 31.5 20t9.5 59v184h-77z" />
    <glyph glyph-name="Ntilde" unicode="&#xd1;" horiz-adv-x="723" 
d="M430 678q-30 0 -78 26q-38 23 -64 23q-41 0 -59 -42l-24 15q34 78 89 78q30 0 78 -26q38 -23 64 -23q19 0 35 11.5t24 30.5l24 -15q-34 -78 -89 -78zM43 0v29l40 7q21 4 31 22t10 61v390q0 43 -9.5 59t-31.5 20l-38 7v29q25 -1 81 -1q50 0 80 1l349 -510v391q0 43 -10 61
t-31 22l-42 7v29q50 -2 108 -2q52 0 102 2v-29l-34 -7q-21 -4 -31 -22t-10 -61v-513h-59l-372 541v-414q0 -43 10 -61t31 -22l38 -7v-29q-75 3 -103 3q-34 0 -109 -3z" />
    <glyph glyph-name="Ograve" unicode="&#xd2;" horiz-adv-x="660" 
d="M371 667l-164 119l44 43l142 -139zM337 30q93 0 145 78.5t52 199.5q0 135 -54 210t-157 75q-92 0 -144 -80t-52 -201q0 -123 56 -202.5t154 -79.5zM332 -14q-137 0 -214.5 89t-77.5 228t77.5 236t210.5 97q137 0 214.5 -89t77.5 -229q0 -90 -33 -164.5t-99.5 -121
t-155.5 -46.5z" />
    <glyph glyph-name="Oacute" unicode="&#xd3;" horiz-adv-x="660" 
d="M289 666l-22 23l142 139l44 -43zM337 30q93 0 145 78.5t52 199.5q0 135 -54 210t-157 75q-92 0 -144 -80t-52 -201q0 -123 56 -202.5t154 -79.5zM332 -14q-137 0 -214.5 89t-77.5 228t77.5 236t210.5 97q137 0 214.5 -89t77.5 -229q0 -90 -33 -164.5t-99.5 -121
t-155.5 -46.5z" />
    <glyph glyph-name="Ocircumflex" unicode="&#xd4;" horiz-adv-x="660" 
d="M216 667l-22 21l136 132l136 -132l-22 -21l-114 85zM337 30q93 0 145 78.5t52 199.5q0 135 -54 210t-157 75q-92 0 -144 -80t-52 -201q0 -123 56 -202.5t154 -79.5zM332 -14q-137 0 -214.5 89t-77.5 228t77.5 236t210.5 97q137 0 214.5 -89t77.5 -229q0 -90 -33 -164.5
t-99.5 -121t-155.5 -46.5z" />
    <glyph glyph-name="Otilde" unicode="&#xd5;" horiz-adv-x="660" 
d="M398 678q-30 0 -78 26q-38 23 -64 23q-41 0 -59 -42l-24 15q34 78 89 78q30 0 78 -26q38 -23 64 -23q19 0 35 11.5t24 30.5l24 -15q-34 -78 -89 -78zM337 30q93 0 145 78.5t52 199.5q0 135 -54 210t-157 75q-92 0 -144 -80t-52 -201q0 -123 56 -202.5t154 -79.5zM332 -14
q-137 0 -214.5 89t-77.5 228t77.5 236t210.5 97q137 0 214.5 -89t77.5 -229q0 -90 -33 -164.5t-99.5 -121t-155.5 -46.5z" />
    <glyph glyph-name="Odieresis" unicode="&#xd6;" horiz-adv-x="660" 
d="M416 686q-20 0 -33 13t-13 33t13 33t33 13t33 -13t13 -33t-13 -33t-33 -13zM245 686q-20 0 -33 13t-13 33t13 33t33 13t33 -13t13 -33t-13 -33t-33 -13zM337 30q93 0 145 78.5t52 199.5q0 135 -54 210t-157 75q-92 0 -144 -80t-52 -201q0 -123 56 -202.5t154 -79.5z
M332 -14q-137 0 -214.5 89t-77.5 228t77.5 236t210.5 97q137 0 214.5 -89t77.5 -229q0 -90 -33 -164.5t-99.5 -121t-155.5 -46.5z" />
    <glyph glyph-name="multiply" unicode="&#xd7;" 
d="M94 32l-35 36l174 174l-175 181l37 36l174 -179l176 179l34 -33l-177 -180l176 -176l-38 -38l-175 177z" />
    <glyph glyph-name="Oslash" unicode="&#xd8;" horiz-adv-x="660" 
d="M127 312q0 -125 54 -200l266 441q-51 40 -124 40q-92 0 -144 -80t-52 -201zM337 30q93 0 145 78.5t52 199.5q0 141 -59 215l-267 -443q52 -50 129 -50zM129 -50l-34 20l48 80q-103 86 -103 253q0 139 77.5 236t210.5 97q83 0 147 -36l46 76l35 -20l-47 -78
q54 -42 82.5 -109.5t28.5 -150.5q0 -90 -33 -164.5t-99.5 -121t-155.5 -46.5q-91 0 -157 40z" />
    <glyph glyph-name="Ugrave" unicode="&#xd9;" horiz-adv-x="701" 
d="M391 667l-164 119l44 43l142 -139zM351 -14q-106 0 -173.5 56t-67.5 152v315q0 43 -9.5 59t-31.5 20l-34 7v29q50 -2 117 -2q72 0 122 2v-29l-46 -7q-22 -4 -31.5 -19.5t-9.5 -59.5v-297q0 -82 49 -128t129 -46q75 0 124.5 48t49.5 126v293q0 43 -10 61t-31 22l-40 7v29
q50 -2 109 -2q49 0 99 2v-29l-34 -7q-21 -4 -31 -22t-10 -61v-306q0 -95 -71.5 -154t-168.5 -59z" />
    <glyph glyph-name="Uacute" unicode="&#xda;" horiz-adv-x="701" 
d="M309 666l-22 23l142 139l44 -43zM351 -14q-106 0 -173.5 56t-67.5 152v315q0 43 -9.5 59t-31.5 20l-34 7v29q50 -2 117 -2q72 0 122 2v-29l-46 -7q-22 -4 -31.5 -19.5t-9.5 -59.5v-297q0 -82 49 -128t129 -46q75 0 124.5 48t49.5 126v293q0 43 -10 61t-31 22l-40 7v29
q50 -2 109 -2q49 0 99 2v-29l-34 -7q-21 -4 -31 -22t-10 -61v-306q0 -95 -71.5 -154t-168.5 -59z" />
    <glyph glyph-name="Ucircumflex" unicode="&#xdb;" horiz-adv-x="701" 
d="M236 667l-22 21l136 132l136 -132l-22 -21l-114 85zM351 -14q-106 0 -173.5 56t-67.5 152v315q0 43 -9.5 59t-31.5 20l-34 7v29q50 -2 117 -2q72 0 122 2v-29l-46 -7q-22 -4 -31.5 -19.5t-9.5 -59.5v-297q0 -82 49 -128t129 -46q75 0 124.5 48t49.5 126v293q0 43 -10 61
t-31 22l-40 7v29q50 -2 109 -2q49 0 99 2v-29l-34 -7q-21 -4 -31 -22t-10 -61v-306q0 -95 -71.5 -154t-168.5 -59z" />
    <glyph glyph-name="Udieresis" unicode="&#xdc;" horiz-adv-x="701" 
d="M436 686q-20 0 -33 13t-13 33t13 33t33 13t33 -13t13 -33t-13 -33t-33 -13zM265 686q-20 0 -33 13t-13 33t13 33t33 13t33 -13t13 -33t-13 -33t-33 -13zM351 -14q-106 0 -173.5 56t-67.5 152v315q0 43 -9.5 59t-31.5 20l-34 7v29q50 -2 117 -2q72 0 122 2v-29l-46 -7
q-22 -4 -31.5 -19.5t-9.5 -59.5v-297q0 -82 49 -128t129 -46q75 0 124.5 48t49.5 126v293q0 43 -10 61t-31 22l-40 7v29q50 -2 109 -2q49 0 99 2v-29l-34 -7q-21 -4 -31 -22t-10 -61v-306q0 -95 -71.5 -154t-168.5 -59z" />
    <glyph glyph-name="Yacute" unicode="&#xdd;" horiz-adv-x="588" 
d="M253 666l-22 23l142 139l44 -43zM176 0v29l38 7q22 4 31.5 20t9.5 59v146l-160 263q-13 21 -19.5 30.5t-19 21t-26.5 14.5l-24 5v29q50 -2 111 -2q78 0 128 2v-29l-44 -6q-28 -3 -28 -32q0 -16 13 -38l122 -206l119 204q17 30 17 47q0 21 -29 26l-35 5v29q50 -2 108 -2
q44 0 94 2v-29l-18 -5q-23 -6 -42.5 -25.5t-42.5 -56.5l-147 -240v-153q0 -43 9.5 -59t31.5 -20l38 -7v-29q-81 3 -114 3q-40 0 -121 -3z" />
    <glyph glyph-name="Thorn" unicode="&#xde;" horiz-adv-x="516" 
d="M269 193q67 0 104.5 35t37.5 99q0 61 -34.5 94.5t-97.5 33.5q-55 0 -78 -2v-256q31 -4 68 -4zM45 0v29l38 7q22 4 31.5 20t9.5 59v394q0 43 -9.5 59t-31.5 20l-38 7v29h155v-124h91q88 0 143.5 -45t55.5 -125q0 -77 -63.5 -129.5t-154.5 -52.5q-35 0 -71 3v-36
q0 -44 9.5 -60t31.5 -19l52 -7v-29q-75 3 -128 3q-40 0 -121 -3z" />
    <glyph glyph-name="germandbls" unicode="&#xdf;" horiz-adv-x="572" 
d="M373 -12q-53 0 -100 14q-1 32 -10 112h35q5 -39 28.5 -62t59.5 -23q40 0 64 24.5t24 65.5q0 26 -15 47.5t-32 33.5t-47 29t-45.5 28t-30 33.5t-14.5 50.5q0 23 14 44.5t34 39t39.5 35.5t33.5 41.5t14 49.5q0 50 -28 80.5t-76 30.5q-56 0 -89.5 -39t-33.5 -98v-525
q-50 2 -64 2q-26 0 -76 -2v28l33 5q19 3 26 17t7 63v328h-76v47h76v16q0 81 63 143t148 62q78 0 121 -39.5t43 -101.5q0 -33 -15 -60t-36.5 -45t-42.5 -34t-36 -34t-15 -37q0 -6 1.5 -11.5t3.5 -9.5t7 -9t8.5 -8t11.5 -8l12 -7.5t14 -8.5l15 -9q62 -37 92.5 -69.5
t30.5 -81.5q0 -67 -50 -107.5t-127 -40.5z" />
    <glyph glyph-name="agrave" unicode="&#xe0;" horiz-adv-x="475" 
d="M259 553l-164 119l44 43l142 -139zM196 46q65 0 103 44q0 69 3 132q-11 1 -39 1q-149 0 -149 -98q0 -36 22.5 -57.5t59.5 -21.5zM169 -12q-58 0 -94.5 34.5t-36.5 89.5q0 70 57.5 112t153.5 42q39 0 54 -1v58q0 118 -112 118q-65 0 -114 -27l-5 29q19 22 58.5 39.5
t78.5 17.5q83 0 126 -42.5t43 -116.5q0 -37 -2 -117t-2 -127q0 -37 16.5 -50t62.5 -13v-28q-28 -18 -76 -18q-34 0 -53.5 18.5t-19.5 49.5h-2q-15 -25 -53 -46.5t-80 -21.5z" />
    <glyph glyph-name="aacute" unicode="&#xe1;" horiz-adv-x="475" 
d="M177 552l-22 23l142 139l44 -43zM196 46q65 0 103 44q0 69 3 132q-11 1 -39 1q-149 0 -149 -98q0 -36 22.5 -57.5t59.5 -21.5zM169 -12q-58 0 -94.5 34.5t-36.5 89.5q0 70 57.5 112t153.5 42q39 0 54 -1v58q0 118 -112 118q-65 0 -114 -27l-5 29q19 22 58.5 39.5
t78.5 17.5q83 0 126 -42.5t43 -116.5q0 -37 -2 -117t-2 -127q0 -37 16.5 -50t62.5 -13v-28q-28 -18 -76 -18q-34 0 -53.5 18.5t-19.5 49.5h-2q-15 -25 -53 -46.5t-80 -21.5z" />
    <glyph glyph-name="acircumflex" unicode="&#xe2;" horiz-adv-x="475" 
d="M104 552l-22 21l136 132l136 -132l-22 -21l-114 85zM196 46q65 0 103 44q0 69 3 132q-11 1 -39 1q-149 0 -149 -98q0 -36 22.5 -57.5t59.5 -21.5zM169 -12q-58 0 -94.5 34.5t-36.5 89.5q0 70 57.5 112t153.5 42q39 0 54 -1v58q0 118 -112 118q-65 0 -114 -27l-5 29
q19 22 58.5 39.5t78.5 17.5q83 0 126 -42.5t43 -116.5q0 -37 -2 -117t-2 -127q0 -37 16.5 -50t62.5 -13v-28q-28 -18 -76 -18q-34 0 -53.5 18.5t-19.5 49.5h-2q-15 -25 -53 -46.5t-80 -21.5z" />
    <glyph glyph-name="atilde" unicode="&#xe3;" horiz-adv-x="475" 
d="M286 568q-30 0 -78 26q-38 23 -64 23q-36 0 -59 -42l-24 15q34 78 89 78q30 0 78 -26q38 -23 64 -23q36 0 59 42l24 -15q-34 -78 -89 -78zM196 46q65 0 103 44q0 69 3 132q-11 1 -39 1q-149 0 -149 -98q0 -36 22.5 -57.5t59.5 -21.5zM169 -12q-58 0 -94.5 34.5
t-36.5 89.5q0 70 57.5 112t153.5 42q39 0 54 -1v58q0 118 -112 118q-65 0 -114 -27l-5 29q19 22 58.5 39.5t78.5 17.5q83 0 126 -42.5t43 -116.5q0 -37 -2 -117t-2 -127q0 -37 16.5 -50t62.5 -13v-28q-28 -18 -76 -18q-34 0 -53.5 18.5t-19.5 49.5h-2q-15 -25 -53 -46.5
t-80 -21.5z" />
    <glyph glyph-name="adieresis" unicode="&#xe4;" horiz-adv-x="475" 
d="M304 572q-20 0 -33 13t-13 33t13 33t33 13t33 -13t13 -33t-13 -33t-33 -13zM133 572q-20 0 -33 13t-13 33t13 33t33 13t33 -13t13 -33t-13 -33t-33 -13zM196 46q65 0 103 44q0 69 3 132q-11 1 -39 1q-149 0 -149 -98q0 -36 22.5 -57.5t59.5 -21.5zM169 -12
q-58 0 -94.5 34.5t-36.5 89.5q0 70 57.5 112t153.5 42q39 0 54 -1v58q0 118 -112 118q-65 0 -114 -27l-5 29q19 22 58.5 39.5t78.5 17.5q83 0 126 -42.5t43 -116.5q0 -37 -2 -117t-2 -127q0 -37 16.5 -50t62.5 -13v-28q-28 -18 -76 -18q-34 0 -53.5 18.5t-19.5 49.5h-2
q-15 -25 -53 -46.5t-80 -21.5z" />
    <glyph glyph-name="aring" unicode="&#xe5;" horiz-adv-x="475" 
d="M218 581q20 0 32 14t12 34q0 21 -12 35t-32 14t-31.5 -13.5t-11.5 -35.5q0 -20 11.5 -34t31.5 -14zM218 553q-31 0 -54.5 22t-23.5 54t23.5 54.5t54.5 22.5t54.5 -22.5t23.5 -54.5t-23.5 -54t-54.5 -22zM196 46q65 0 103 44q0 69 3 132q-11 1 -39 1q-149 0 -149 -98
q0 -36 22.5 -57.5t59.5 -21.5zM169 -12q-58 0 -94.5 34.5t-36.5 89.5q0 70 57.5 112t153.5 42q39 0 54 -1v58q0 118 -112 118q-65 0 -114 -27l-5 29q19 22 58.5 39.5t78.5 17.5q83 0 126 -42.5t43 -116.5q0 -37 -2 -117t-2 -127q0 -37 16.5 -50t62.5 -13v-28
q-28 -18 -76 -18q-34 0 -53.5 18.5t-19.5 49.5h-2q-15 -25 -53 -46.5t-80 -21.5z" />
    <glyph glyph-name="ae" unicode="&#xe6;" horiz-adv-x="730" 
d="M376 314h218q23 0 23 22q0 48 -28 84t-77 36q-59 0 -94 -42.5t-42 -99.5zM190 46q81 0 125 72q-14 33 -20 105q-13 1 -38 1q-149 0 -149 -99q0 -36 22 -57.5t60 -21.5zM163 -12q-58 0 -94.5 35t-36.5 89q0 70 57.5 112.5t153.5 42.5q39 0 54 -1v57q0 118 -112 118
q-65 0 -114 -27l-5 30q22 22 61 39t77 17q116 0 152 -78q63 78 160 78q88 0 136 -55.5t48 -134.5q0 -23 -2 -36h-324q-1 -10 -1 -29q0 -85 43.5 -141.5t123.5 -56.5q76 0 132 28l3 -25q-15 -25 -58.5 -43.5t-95.5 -18.5q-129 0 -189 96q-55 -96 -169 -96z" />
    <glyph glyph-name="ccedilla" unicode="&#xe7;" horiz-adv-x="457" 
d="M224 -205q-23 0 -42 7v27q20 -8 47 -8q26 0 41.5 14.5t15.5 38.5q0 44 -74 48l25 68q-92 10 -143.5 75.5t-51.5 170.5q0 111 70.5 187.5t169.5 76.5q67 0 133 -24q-4 -44 -4 -114h-38q-2 46 -24.5 70.5t-72.5 24.5q-66 0 -111 -57t-45 -154q0 -94 48.5 -146.5
t128.5 -52.5q69 0 116 31l5 -26q-15 -25 -55.5 -44.5t-92.5 -19.5h-3l-12 -35q36 -2 59.5 -21.5t23.5 -50.5q0 -43 -31.5 -64.5t-82.5 -21.5z" />
    <glyph glyph-name="egrave" unicode="&#xe8;" horiz-adv-x="477" 
d="M297 553l-164 119l44 43l142 -139zM125 314h216q23 0 23 22q0 48 -28 84t-77 36q-58 0 -92.5 -42t-41.5 -100zM268 -12q-109 0 -167.5 66t-58.5 182q0 115 62 189.5t159 74.5q88 0 136 -55.5t48 -134.5q0 -23 -2 -36h-323q-1 -10 -1 -29q0 -86 43 -142t123 -56
q76 0 132 28l3 -25q-15 -25 -58.5 -43.5t-95.5 -18.5z" />
    <glyph glyph-name="eacute" unicode="&#xe9;" horiz-adv-x="477" 
d="M215 552l-22 23l142 139l44 -43zM125 314h216q23 0 23 22q0 48 -28 84t-77 36q-58 0 -92.5 -42t-41.5 -100zM268 -12q-109 0 -167.5 66t-58.5 182q0 115 62 189.5t159 74.5q88 0 136 -55.5t48 -134.5q0 -23 -2 -36h-323q-1 -10 -1 -29q0 -86 43 -142t123 -56q76 0 132 28
l3 -25q-15 -25 -58.5 -43.5t-95.5 -18.5z" />
    <glyph glyph-name="ecircumflex" unicode="&#xea;" horiz-adv-x="477" 
d="M142 552l-22 21l136 132l136 -132l-22 -21l-114 85zM125 314h216q23 0 23 22q0 48 -28 84t-77 36q-58 0 -92.5 -42t-41.5 -100zM268 -12q-109 0 -167.5 66t-58.5 182q0 115 62 189.5t159 74.5q88 0 136 -55.5t48 -134.5q0 -23 -2 -36h-323q-1 -10 -1 -29q0 -86 43 -142
t123 -56q76 0 132 28l3 -25q-15 -25 -58.5 -43.5t-95.5 -18.5z" />
    <glyph glyph-name="edieresis" unicode="&#xeb;" horiz-adv-x="477" 
d="M342 572q-20 0 -33 13t-13 33t13 33t33 13t33 -13t13 -33t-13 -33t-33 -13zM171 572q-20 0 -33 13t-13 33t13 33t33 13t33 -13t13 -33t-13 -33t-33 -13zM125 314h216q23 0 23 22q0 48 -28 84t-77 36q-58 0 -92.5 -42t-41.5 -100zM268 -12q-109 0 -167.5 66t-58.5 182
q0 115 62 189.5t159 74.5q88 0 136 -55.5t48 -134.5q0 -23 -2 -36h-323q-1 -10 -1 -29q0 -86 43 -142t123 -56q76 0 132 28l3 -25q-15 -25 -58.5 -43.5t-95.5 -18.5z" />
    <glyph glyph-name="igrave" unicode="&#xec;" horiz-adv-x="308" 
d="M197 553l-164 119l44 43l142 -139zM45 0v28l46 5q19 2 26 16.5t7 63.5v244q0 41 -9.5 54t-55.5 22v24q79 23 139 48v-392q0 -49 7 -63t26 -17l36 -5v-28q-75 3 -107 3q-40 0 -115 -3z" />
    <glyph glyph-name="iacute" unicode="&#xed;" horiz-adv-x="308" 
d="M115 552l-22 23l142 139l44 -43zM45 0v28l46 5q19 2 26 16.5t7 63.5v244q0 41 -9.5 54t-55.5 22v24q79 23 139 48v-392q0 -49 7 -63t26 -17l36 -5v-28q-75 3 -107 3q-40 0 -115 -3z" />
    <glyph glyph-name="icircumflex" unicode="&#xee;" horiz-adv-x="308" 
d="M42 552l-22 21l136 132l136 -132l-22 -21l-114 85zM45 0v28l46 5q19 2 26 16.5t7 63.5v244q0 41 -9.5 54t-55.5 22v24q79 23 139 48v-392q0 -49 7 -63t26 -17l36 -5v-28q-75 3 -107 3q-40 0 -115 -3z" />
    <glyph glyph-name="idieresis" unicode="&#xef;" horiz-adv-x="308" 
d="M242 572q-20 0 -33 13t-13 33t13 33t33 13t33 -13t13 -33t-13 -33t-33 -13zM71 572q-20 0 -33 13t-13 33t13 33t33 13t33 -13t13 -33t-13 -33t-33 -13zM45 0v28l46 5q19 2 26 16.5t7 63.5v244q0 41 -9.5 54t-55.5 22v24q79 23 139 48v-392q0 -49 7 -63t26 -17l36 -5v-28
q-75 3 -107 3q-40 0 -115 -3z" />
    <glyph glyph-name="eth" unicode="&#xf0;" horiz-adv-x="509" 
d="M258 37q58 0 89.5 53.5t31.5 145.5q0 72 -10 116q-54 41 -110 41q-62 0 -99.5 -48t-37.5 -121q0 -89 37 -138t99 -49zM245 -12q-85 0 -144 62.5t-59 155.5q0 105 58 168.5t146 63.5q67 0 115 -40q-24 119 -124 189l-93 -72l-29 39l77 60q-81 39 -172 39l-2 43
q124 0 221 -46l104 81l30 -38l-88 -69q84 -57 129 -151t45 -203q0 -129 -55.5 -205.5t-158.5 -76.5z" />
    <glyph glyph-name="ntilde" unicode="&#xf1;" horiz-adv-x="592" 
d="M376 568q-30 0 -78 26q-38 23 -64 23q-36 0 -59 -42l-24 15q34 78 89 78q30 0 78 -26q38 -23 64 -23q36 0 59 42l24 -15q-34 -78 -89 -78zM58 0v28l33 5q19 3 26 17t7 63v244q0 41 -9.5 54t-55.5 22v24q87 25 139 48v-70q28 26 67 45.5t76 19.5q84 0 118 -43.5t34 -125.5
v-218q0 -49 7 -63t26 -17l33 -5v-28q-75 3 -104 3q-27 0 -102 -3v28l33 5q19 3 26 17t7 63v207q0 62 -22.5 91.5t-82.5 29.5q-56 0 -116 -39v-289q0 -49 7 -63t26 -17l33 -5v-28q-75 3 -104 3q-27 0 -102 -3z" />
    <glyph glyph-name="ograve" unicode="&#xf2;" 
d="M309 553l-164 119l44 43l142 -139zM270 29q69 0 105.5 56t36.5 153q0 102 -37.5 161.5t-107.5 59.5q-66 0 -103.5 -56.5t-37.5 -153.5q0 -103 38.5 -161.5t105.5 -58.5zM264 -12q-107 0 -164.5 68.5t-57.5 183.5q0 110 63 185t166 75q106 0 165 -69.5t59 -182.5
q0 -110 -63.5 -185t-167.5 -75z" />
    <glyph glyph-name="oacute" unicode="&#xf3;" 
d="M227 552l-22 23l142 139l44 -43zM270 29q69 0 105.5 56t36.5 153q0 102 -37.5 161.5t-107.5 59.5q-66 0 -103.5 -56.5t-37.5 -153.5q0 -103 38.5 -161.5t105.5 -58.5zM264 -12q-107 0 -164.5 68.5t-57.5 183.5q0 110 63 185t166 75q106 0 165 -69.5t59 -182.5
q0 -110 -63.5 -185t-167.5 -75z" />
    <glyph glyph-name="ocircumflex" unicode="&#xf4;" 
d="M154 552l-22 21l136 132l136 -132l-22 -21l-114 85zM270 29q69 0 105.5 56t36.5 153q0 102 -37.5 161.5t-107.5 59.5q-66 0 -103.5 -56.5t-37.5 -153.5q0 -103 38.5 -161.5t105.5 -58.5zM264 -12q-107 0 -164.5 68.5t-57.5 183.5q0 110 63 185t166 75q106 0 165 -69.5
t59 -182.5q0 -110 -63.5 -185t-167.5 -75z" />
    <glyph glyph-name="otilde" unicode="&#xf5;" 
d="M336 568q-30 0 -78 26q-38 23 -64 23q-36 0 -59 -42l-24 15q34 78 89 78q30 0 78 -26q38 -23 64 -23q36 0 59 42l24 -15q-34 -78 -89 -78zM270 29q69 0 105.5 56t36.5 153q0 102 -37.5 161.5t-107.5 59.5q-66 0 -103.5 -56.5t-37.5 -153.5q0 -103 38.5 -161.5
t105.5 -58.5zM264 -12q-107 0 -164.5 68.5t-57.5 183.5q0 110 63 185t166 75q106 0 165 -69.5t59 -182.5q0 -110 -63.5 -185t-167.5 -75z" />
    <glyph glyph-name="odieresis" unicode="&#xf6;" 
d="M354 572q-20 0 -33 13t-13 33t13 33t33 13t33 -13t13 -33t-13 -33t-33 -13zM183 572q-20 0 -33 13t-13 33t13 33t33 13t33 -13t13 -33t-13 -33t-33 -13zM270 29q69 0 105.5 56t36.5 153q0 102 -37.5 161.5t-107.5 59.5q-66 0 -103.5 -56.5t-37.5 -153.5
q0 -103 38.5 -161.5t105.5 -58.5zM264 -12q-107 0 -164.5 68.5t-57.5 183.5q0 110 63 185t166 75q106 0 165 -69.5t59 -182.5q0 -110 -63.5 -185t-167.5 -75z" />
    <glyph glyph-name="divide" unicode="&#xf7;" 
d="M8 243v49h520v-49h-520zM268 379q-23 0 -39.5 16t-16.5 39q0 22 16.5 38t39.5 16q22 0 38.5 -16t16.5 -38t-16.5 -38.5t-38.5 -16.5zM268 46q-23 0 -39.5 16t-16.5 38t16.5 38t39.5 16t39 -16t16 -38t-16 -38t-39 -16z" />
    <glyph glyph-name="oslash" unicode="&#xf8;" 
d="M126 249q0 -93 30 -149l197 325q-34 34 -86 34q-66 0 -103.5 -56.5t-37.5 -153.5zM270 29q69 0 105.5 56t36.5 153q0 94 -33 153l-197 -326q36 -36 88 -36zM112 -50l-34 20l40 67q-76 67 -76 203q0 110 63 185t166 75q64 0 111 -26l40 65l35 -20l-42 -68q80 -69 80 -203
q0 -110 -63.5 -185t-167.5 -75q-63 0 -113 26z" />
    <glyph glyph-name="ugrave" unicode="&#xf9;" horiz-adv-x="576" 
d="M324 553l-164 119l44 43l142 -139zM394 -12v65q-28 -26 -67 -45.5t-76 -19.5q-84 0 -118 43.5t-34 125.5v219q0 41 -9.5 54t-55.5 22v24q80 14 139 29v-337q0 -62 22.5 -91.5t82.5 -29.5q56 0 116 39v290q0 41 -9.5 54t-55.5 22v24q80 14 139 29v-386q0 -41 9.5 -54
t55.5 -22v-24q-66 -9 -139 -31z" />
    <glyph glyph-name="uacute" unicode="&#xfa;" horiz-adv-x="576" 
d="M242 552l-22 23l142 139l44 -43zM394 -12v65q-28 -26 -67 -45.5t-76 -19.5q-84 0 -118 43.5t-34 125.5v219q0 41 -9.5 54t-55.5 22v24q80 14 139 29v-337q0 -62 22.5 -91.5t82.5 -29.5q56 0 116 39v290q0 41 -9.5 54t-55.5 22v24q80 14 139 29v-386q0 -41 9.5 -54
t55.5 -22v-24q-66 -9 -139 -31z" />
    <glyph glyph-name="ucircumflex" unicode="&#xfb;" horiz-adv-x="576" 
d="M169 552l-22 21l136 132l136 -132l-22 -21l-114 85zM394 -12v65q-28 -26 -67 -45.5t-76 -19.5q-84 0 -118 43.5t-34 125.5v219q0 41 -9.5 54t-55.5 22v24q80 14 139 29v-337q0 -62 22.5 -91.5t82.5 -29.5q56 0 116 39v290q0 41 -9.5 54t-55.5 22v24q80 14 139 29v-386
q0 -41 9.5 -54t55.5 -22v-24q-66 -9 -139 -31z" />
    <glyph glyph-name="udieresis" unicode="&#xfc;" horiz-adv-x="576" 
d="M369 572q-20 0 -33 13t-13 33t13 33t33 13t33 -13t13 -33t-13 -33t-33 -13zM198 572q-20 0 -33 13t-13 33t13 33t33 13t33 -13t13 -33t-13 -33t-33 -13zM394 -12v65q-28 -26 -67 -45.5t-76 -19.5q-84 0 -118 43.5t-34 125.5v219q0 41 -9.5 54t-55.5 22v24q80 14 139 29
v-337q0 -62 22.5 -91.5t82.5 -29.5q56 0 116 39v290q0 41 -9.5 54t-55.5 22v24q80 14 139 29v-386q0 -41 9.5 -54t55.5 -22v-24q-66 -9 -139 -31z" />
    <glyph glyph-name="yacute" unicode="&#xfd;" horiz-adv-x="491" 
d="M208 552l-22 23l142 139l44 -43zM79 -202q-22 0 -39 3l7 70q20 -5 47 -5q91 0 131 129l-162 426q-13 33 -40 37l-14 2v28q64 -2 93 -2q47 0 109 2v-28q-32 -4 -47 -11t-15 -28q0 -17 11 -47l103 -274l97 267q13 37 13 54q0 16 -9.5 25t-19.5 11t-31 3v28q50 -2 84 -2
q43 0 93 2v-28q-35 -3 -49 -20t-32 -64l-158 -423q-29 -76 -69.5 -115.5t-102.5 -39.5z" />
    <glyph glyph-name="thorn" unicode="&#xfe;" horiz-adv-x="527" 
d="M232 33q78 0 126.5 55.5t48.5 159.5q0 81 -40.5 138t-111.5 57q-49 0 -95 -21v-372q37 -17 72 -17zM20 -194v28l33 5q19 2 26 16.5t7 63.5v635q0 41 -10 54t-56 22v24q76 22 140 54v-255q52 47 125 47q92 0 146 -65.5t54 -168.5q0 -125 -76.5 -201.5t-195.5 -76.5
q-26 0 -53 5v-74q0 -49 7 -63t26 -17l46 -5v-28q-75 3 -117 3q-27 0 -102 -3z" />
    <glyph glyph-name="OE" unicode="&#x152;" horiz-adv-x="861" 
d="M339 27q51 0 94 27q9 18 9 59v396q0 41 -9 57q-45 30 -108 30q-93 0 -147 -81t-54 -203q0 -124 58 -204.5t157 -80.5zM334 -14q-137 0 -215.5 89t-78.5 228t79.5 236t210.5 97q53 0 98 -14h49q148 0 207 1q15 0 109 4q0 -72 4 -134h-34l-10 44q-9 40 -54 40h-180v-233
h137q24 0 32 5.5t11 20.5l10 48h31q-3 -75 -3 -92q0 -22 3 -97h-31l-9 43q-2 10 -5 15.5t-12.5 9.5t-26.5 4h-137v-201q0 -31 14.5 -42.5t69.5 -11.5h103q26 0 39 9t21 30l20 59h35q-18 -112 -19 -147q-92 5 -132 5h-194q-32 0 -48 -1q-42 -15 -94 -15z" />
    <glyph glyph-name="oe" unicode="&#x153;" horiz-adv-x="842" 
d="M490 314h216q23 0 23 22q0 48 -28 84t-77 36q-58 0 -92.5 -42t-41.5 -100zM270 29q69 0 105.5 56t36.5 153q0 102 -37.5 161.5t-107.5 59.5q-66 0 -103.5 -56.5t-37.5 -153.5q0 -103 38.5 -161.5t105.5 -58.5zM264 -12q-107 0 -164.5 68.5t-57.5 183.5q0 110 63 185
t166 75q124 0 183 -96q63 96 174 96q88 0 136 -55.5t48 -134.5q0 -23 -2 -36h-323q-1 -10 -1 -31q0 -86 43 -141t123 -55q76 0 132 28l3 -25q-15 -25 -58.5 -43.5t-95.5 -18.5q-129 0 -188 93q-65 -93 -181 -93z" />
    <glyph glyph-name="Scaron" unicode="&#x160;" horiz-adv-x="485" 
d="M246 667l-136 132l22 21l114 -88l114 88l22 -21zM219 -14q-63 0 -165 26q0 43 -8 141h39q5 -63 38.5 -93t101.5 -30q60 0 95.5 33t35.5 89q0 36 -22.5 62.5t-56 40t-72.5 31.5t-72.5 37t-56 56.5t-22.5 89.5q0 72 57 119.5t138 47.5q83 0 164 -27v-33q0 -53 4 -102h-38
q-8 119 -133 119q-50 0 -84 -29.5t-34 -77.5q0 -38 22.5 -66t56 -43.5t73 -34.5t73 -37.5t56 -53.5t22.5 -82q0 -76 -60.5 -129.5t-151.5 -53.5z" />
    <glyph glyph-name="scaron" unicode="&#x161;" horiz-adv-x="430" 
d="M224 552l-136 132l22 21l114 -88l114 88l22 -21zM205 -12q-79 0 -150 23q1 13 1 37q0 26 -4 94h37q7 -58 31 -84t84 -26q48 0 77.5 24.5t29.5 66.5q0 34 -26 55.5t-62.5 33.5t-73.5 27t-63 47t-26 82q0 59 47.5 95.5t121.5 36.5q68 0 133 -26q-1 -15 -1 -41q0 -29 3 -71
h-37q-4 49 -28.5 73t-73.5 24q-46 0 -72.5 -20t-26.5 -57q0 -27 18.5 -46.5t46.5 -29.5t61 -24t61 -29t46.5 -45.5t18.5 -72.5q0 -61 -49.5 -104t-123.5 -43z" />
    <glyph glyph-name="Ydieresis" unicode="&#x178;" horiz-adv-x="588" 
d="M380 686q-20 0 -33 13t-13 33t13 33t33 13t33 -13t13 -33t-13 -33t-33 -13zM209 686q-20 0 -33 13t-13 33t13 33t33 13t33 -13t13 -33t-13 -33t-33 -13zM176 0v29l38 7q22 4 31.5 20t9.5 59v146l-160 263q-13 21 -19.5 30.5t-19 21t-26.5 14.5l-24 5v29q50 -2 111 -2
q78 0 128 2v-29l-44 -6q-28 -3 -28 -32q0 -16 13 -38l122 -206l119 204q17 30 17 47q0 21 -29 26l-35 5v29q50 -2 108 -2q44 0 94 2v-29l-18 -5q-23 -6 -42.5 -25.5t-42.5 -56.5l-147 -240v-153q0 -43 9.5 -59t31.5 -20l38 -7v-29q-81 3 -114 3q-40 0 -121 -3z" />
    <glyph glyph-name="circumflex" unicode="&#x2c6;" horiz-adv-x="320" 
d="M46 556l-22 21l136 132l136 -132l-22 -21l-114 85z" />
    <glyph glyph-name="tilde" unicode="&#x2dc;" horiz-adv-x="320" 
d="M228 566q-30 0 -78 26q-38 23 -64 23q-36 0 -59 -42l-24 15q34 78 89 78q30 0 78 -26q38 -23 64 -23q36 0 59 42l24 -15q-34 -78 -89 -78z" />
    <glyph glyph-name="uni0394" unicode="&#x394;" horiz-adv-x="585" 
d="M66 51h419l-205 482zM16 0v36l264 594h37l252 -591v-39h-553z" />
    <glyph glyph-name="uni03BC" unicode="&#x3bc;" horiz-adv-x="563" 
d="M84 -194q0 30 3.5 107.5t3.5 106.5v356q0 41 -9.5 54t-55.5 22v24q80 14 139 29v-339q0 -62 22.5 -91.5t82.5 -29.5q56 0 116 39v292q0 41 -9.5 54t-55.5 22v24q80 14 139 29v-388q0 -41 9.5 -54t55.5 -22v-24q-66 -9 -139 -31v65q-28 -26 -67 -45.5t-76 -19.5
q-62 0 -94 34q0 -29 3.5 -106.5t3.5 -107.5h-72z" />
    <glyph glyph-name="pi" unicode="&#x3c0;" horiz-adv-x="625" 
d="M479 -10q-36 0 -58 23.5t-22 65.5q0 55 11 343h-189l-16 -422q-91 0 -131 -5l-4 26q46 9 63 33t20 79l15 289h-32q-31 0 -51.5 -11.5t-31.5 -44.5l-21 12q9 51 31.5 80.5t70.5 29.5h443l-14 -66h-100q-3 -89 -3 -212v-76q0 -76 47 -76q33 0 48 36l25 -11
q-36 -93 -101 -93z" />
    <glyph glyph-name="endash" unicode="&#x2013;" horiz-adv-x="549" 
d="M46 231v59h457v-59h-457z" />
    <glyph glyph-name="emdash" unicode="&#x2014;" horiz-adv-x="875" 
d="M46 231v59h783v-59h-783z" />
    <glyph glyph-name="quoteleft" unicode="&#x2018;" horiz-adv-x="208" 
d="M144 708l24 -18q-43 -46 -43 -105q0 -44 25 -81l-77 -30q-23 35 -23 81q0 48 28 88t66 65z" />
    <glyph glyph-name="quotesinglbase" unicode="&#x201a;" horiz-adv-x="208" 
d="M64 -124l-24 18q43 46 43 105q0 44 -25 81l77 30q23 -35 23 -81q0 -48 -28 -88t-66 -65z" />
    <glyph glyph-name="quotedblleft" unicode="&#x201c;" horiz-adv-x="383" 
d="M144 708l24 -18q-43 -46 -43 -105q0 -44 25 -81l-77 -30q-23 35 -23 81q0 48 28 88t66 65zM319 708l24 -18q-43 -46 -43 -105q0 -44 25 -81l-77 -30q-23 35 -23 81q0 48 28 88t66 65z" />
    <glyph glyph-name="quotedblright" unicode="&#x201d;" horiz-adv-x="383" 
d="M239 474l-24 18q43 46 43 105q0 44 -25 81l77 30q23 -35 23 -81q0 -48 -28 -88t-66 -65zM64 474l-24 18q43 46 43 105q0 44 -25 81l77 30q23 -35 23 -81q0 -48 -28 -88t-66 -65z" />
    <glyph glyph-name="dagger" unicode="&#x2020;" 
d="M250 -194l-17 454l17 154l-94 -9h-104v55h104l94 -9l-14 124v121h66v-121l-14 -124l94 9h103v-55h-103l-94 9l16 -155l-16 -453h-38z" />
    <glyph glyph-name="daggerdbl" unicode="&#x2021;" 
d="M236 -194v149l14 123l-93 -9h-105v55h104l94 -9l-17 145l17 154l-94 -9h-104v55h104l94 -9l-14 124v121h66v-121l-14 -124l94 9h103v-55h-103l-94 9l16 -155l-16 -144l94 9h103v-55h-103l-94 9l14 -123v-149h-66z" />
    <glyph glyph-name="ellipsis" unicode="&#x2026;" horiz-adv-x="663" 
d="M532 -14q-23 0 -39.5 16.5t-16.5 39.5t16.5 39t39.5 16t39 -16t16 -39t-16 -39.5t-39 -16.5zM332 -14q-23 0 -39.5 16.5t-16.5 39.5t16.5 39t39.5 16t39 -16t16 -39t-16 -39.5t-39 -16.5zM132 -14q-23 0 -39.5 16.5t-16.5 39.5t16.5 39t39.5 16t39 -16t16 -39t-16 -39.5
t-39 -16.5z" />
    <glyph glyph-name="perthousand" unicode="&#x2030;" horiz-adv-x="1224" 
d="M230 -39l-42 21l414 663l42 -23zM631 28q46 0 71.5 36.5t25.5 99.5q0 62 -26.5 98t-70.5 36q-46 0 -71 -36t-25 -99q0 -62 26 -98.5t70 -36.5zM631 -11q-68 0 -113 48.5t-45 123.5t44 125t114 50q71 0 116 -48t45 -121q0 -76 -44.5 -127t-116.5 -51zM212 328
q46 0 71.5 36.5t25.5 99.5q0 62 -26.5 98t-70.5 36q-45 0 -70.5 -36t-25.5 -99q0 -62 26.5 -98.5t69.5 -36.5zM212 289q-68 0 -113 48.5t-45 123.5t44 125t114 50q71 0 116 -48t45 -121q0 -76 -44.5 -127t-116.5 -51zM1009 28q46 0 71.5 36.5t25.5 99.5q0 62 -26.5 98
t-70.5 36q-46 0 -71 -36t-25 -99q0 -62 26 -98.5t70 -36.5zM1009 -11q-68 0 -113 48.5t-45 123.5t44 125t114 50q71 0 116 -48t45 -121q0 -76 -44.5 -127t-116.5 -51z" />
    <glyph glyph-name="guilsinglleft" unicode="&#x2039;" horiz-adv-x="318" 
d="M244 45l-194 200l194 200l24 -22l-140 -178l140 -178z" />
    <glyph glyph-name="guilsinglright" unicode="&#x203a;" horiz-adv-x="318" 
d="M74 45l-24 22l140 178l-140 178l24 22l194 -200z" />
    <glyph glyph-name="fraction" unicode="&#x2044;" horiz-adv-x="104" 
d="M-145 -37l-34 17l414 663l34 -19z" />
    <glyph glyph-name="Euro" unicode="&#x20ac;" horiz-adv-x="540" 
d="M2 366v38h73q26 101 95.5 166.5t164.5 65.5q76 0 147 -30q2 -96 4 -130h-33q-14 118 -130 118q-66 0 -113 -52.5t-65 -137.5h238v-38h-245q-3 -28 -3 -57q0 -18 2 -50h246v-38h-240q16 -88 63.5 -140.5t115.5 -52.5q62 0 99 28t43 83h33q-8 -106 -8 -128
q-81 -25 -176 -25q-98 0 -162.5 63.5t-82.5 171.5h-66v38h62q-2 28 -2 43q0 38 5 64h-65z" />
    <glyph glyph-name="trademark" unicode="&#x2122;" horiz-adv-x="740" 
d="M298 334v21l23 5q19 3 21 31l15 152q2 28 2 34q0 21 -15 22l-22 2v24q20 -1 40 -1q30 0 45 1l90 -223l89 223q12 -1 43 -1q22 0 39 1v-24l-20 -2q-15 -3 -15 -19q0 -4 1.5 -20t1.5 -24l10 -146q1 -27 21 -32l17 -3v-21q-16 1 -56 1q-43 0 -59 -1v21l20 5q14 4 13 24
l-13 160l-86 -210h-29l-85 205l-16 -152v-6q0 -20 18 -23l16 -2v-22q-16 1 -55 1q-38 0 -54 -1zM96 334v21l23 4q18 4 18 31v203h-43q-26 0 -30 -20l-3 -22h-25q2 42 2 74q100 -2 126 -2q43 0 123 2q0 -32 2 -74h-25l-3 22q-4 20 -30 20h-43v-203q0 -27 18 -31l23 -4v-21
q-16 1 -69 1q-48 0 -64 -1z" />
    <glyph glyph-name="partialdiff" unicode="&#x2202;" horiz-adv-x="503" 
d="M230 30q51 0 85 46t47.5 110t13.5 140v11q-50 47 -104 47q-70 0 -107.5 -50t-37.5 -146q0 -72 28.5 -115t74.5 -43zM220 -14q-74 0 -125 52.5t-51 141.5q0 116 60.5 181.5t147.5 65.5q79 0 127 -46v10q0 97 -37 146.5t-129 49.5q-20 0 -52.5 -6.5t-48.5 -14.5l-11 53
q57 17 112 17q117 0 181.5 -74t64.5 -202q0 -71 -14.5 -136.5t-42 -119.5t-75 -86t-107.5 -32z" />
    <glyph glyph-name="product" unicode="&#x220f;" horiz-adv-x="786" 
d="M42 -144v24l38 7q22 4 31.5 20t9.5 59v671q0 43 -9.5 59t-31.5 20l-38 7v24q75 -3 255 -3h191q180 0 255 3v-24l-38 -7q-22 -4 -31.5 -20t-9.5 -59l1 -671q0 -43 9.5 -59t31.5 -20l38 -7v-24q-81 3 -116 3q-44 0 -119 -3v24l38 7q22 4 31.5 20t9.5 59v730h-390v-730
q0 -43 9.5 -59t31.5 -20l38 -7v-24q-81 3 -118 3q-36 0 -117 -3z" />
    <glyph glyph-name="summation" unicode="&#x2211;" horiz-adv-x="635" 
d="M576 -139q-93 5 -154 5h-246q-89 0 -142 -1v33l289 396l-287 419v31q50 -2 136 -2h208q136 0 186 5q0 -27 11 -144h-27l-17 54q-13 40 -56 40l-334 1l255 -374l-276 -385l371 1q26 0 39.5 9t20.5 30l20 59h28q-24 -153 -25 -177z" />
    <glyph glyph-name="minus" unicode="&#x2212;" 
d="M79 242v50h379v-50h-379z" />
    <glyph glyph-name="radical" unicode="&#x221a;" horiz-adv-x="494" 
d="M256 -1l-130 329h-81v49h118l115 -288h2l202 591l52 -17l-237 -664h-41z" />
    <glyph glyph-name="infinity" unicode="&#x221e;" horiz-adv-x="760" 
d="M574 167q49 0 79 26.5t30 69.5q0 45 -35 68t-79 23q-36 0 -69.5 -21t-89.5 -76q62 -51 97.5 -70.5t66.5 -19.5zM190 163q36 0 70 21.5t88 74.5q-61 53 -96 72.5t-66 19.5q-48 0 -78.5 -27t-30.5 -70q0 -44 35 -67.5t78 -23.5zM580 117q-49 0 -88 22.5t-112 87.5
q-62 -60 -105.5 -84t-102.5 -24q-61 0 -103.5 36t-42.5 98t47 104.5t107 42.5q49 0 89 -22.5t111 -86.5q65 60 107.5 84t100.5 24q61 0 103.5 -36.5t42.5 -98.5q0 -61 -47 -104t-107 -43z" />
    <glyph glyph-name="approxequal" unicode="&#x2248;" 
d="M358 258q-38 0 -97 43q-57 42 -88 42q-46 0 -76 -60l-33 23q18 38 48 66t67 28q23 0 46.5 -9t36 -17.5t37.5 -27.5q37 -28 67 -28q50 0 76 58l30 -22q-16 -38 -46 -67t-68 -29zM358 90q-38 0 -97 43q-57 42 -88 42q-46 0 -76 -60l-33 23q18 38 48 66t67 28q23 0 46.5 -9
t36 -17.5t37.5 -27.5q37 -28 67 -28q50 0 76 58l30 -22q-16 -38 -46 -67t-68 -29z" />
    <glyph glyph-name="notequal" unicode="&#x2260;" 
d="M44 300v49h249l85 138l38 -24l-71 -114h148v-49h-178l-58 -94h236v-49h-266l-91 -148l-38 24l76 124h-130v49h160l58 94h-218z" />
    <glyph glyph-name="lessequal" unicode="&#x2264;" 
d="M34 -96v49h469v-49h-469zM503 17l-469 210v51l468 210v-52l-411 -184l412 -183v-52z" />
    <glyph glyph-name="greaterequal" unicode="&#x2265;" 
d="M34 -96v49h469v-49h-469zM34 17v52l412 183l-411 184v52l468 -210v-51z" />
    <glyph glyph-name="dotmath" unicode="&#x22c5;" 
d="M268 230q-26 0 -43.5 18t-17.5 43t17.5 42.5t43.5 17.5t43.5 -17.5t17.5 -42.5t-17.5 -43t-43.5 -18z" />
    <glyph glyph-name="lozenge" unicode="&#x25ca;" horiz-adv-x="510" 
d="M259 55l162 264l-171 279l-161 -264zM236 -13l-208 340l207 340h39l208 -340l-207 -340h-39z" />
    </font>
</defs>
</svg>
